<?xml version="1.0" encoding="UTF-8"?>
<svg id="back_" data-name="back[" xmlns="http://www.w3.org/2000/svg" viewBox="0 0 1920 1080">
  <defs>
    <style>
      .cls-1 {
        fill: #74a15b;
      }

      .cls-2 {
        fill: #749c5b;
      }

      .cls-3 {
        fill: #77a05c;
      }

      .cls-4 {
        fill: #77a25c;
      }

      .cls-5 {
        fill: #759f5d;
      }

      .cls-6 {
        fill: #77a25d;
      }

      .cls-7 {
        fill: #152c31;
      }

      .cls-8 {
        fill: #75a25b;
      }

      .cls-9 {
        fill: #759f5c;
      }

      .cls-10 {
        fill: #75a05c;
      }

      .cls-11 {
        fill: #75a05b;
      }

      .cls-12, .cls-13 {
        fill: none;
      }

      .cls-14 {
        fill: #75a15d;
      }

      .cls-15 {
        fill: #75a15c;
      }

      .cls-16, .cls-17, .cls-18 {
        fill: #1b3c43;
      }

      .cls-13 {
        stroke: #1a3a40;
        stroke-linecap: round;
        stroke-linejoin: round;
      }

      .cls-19 {
        fill: #76a15c;
      }

      .cls-20 {
        fill: #74a05d;
      }

      .cls-21 {
        fill: #142b2f;
      }

      .cls-22 {
        fill: #739d5b;
      }

      .cls-23 {
        fill: #193137;
      }

      .cls-24 {
        fill: #1a3a40;
      }

      .cls-25 {
        fill: #77a15d;
      }

      .cls-26 {
        fill: #76a05e;
      }

      .cls-27 {
        fill: #77a15c;
      }

      .cls-17 {
        font-family: Lemon-Days, 'Lemon Days';
        font-size: 191.12px;
      }

      .cls-28 {
        fill: #76a15d;
      }

      .cls-18 {
        font-family: CalSans-Regular, 'Cal Sans';
        font-size: 84.25px;
      }

      .cls-29 {
        fill: #749f5c;
      }
    </style>
  </defs>
  <text class="cls-17" transform="translate(514.91 563.22) scale(1.1 1.01)"><tspan x="0" y="0">township</tspan></text>
  <text class="cls-18" transform="translate(1117.68 700.63) scale(1.1 1.01)"><tspan x="0" y="0">COMMUNITY</tspan></text>
  <path class="cls-24" d="M185.35,589.92c-2.47-3.72-.3-5.25.06-6.03,6.05-12.95,132.44-39.9,188.68-1.37,0,0,0,0,0,0,.43-.28.85-.55,1.27-.83.19-.12.38-.25.57-.37.47-.31.92-.62,1.38-.93.13-.09.27-.18.4-.27.32-.22.62-.43.94-.65.26-.18.53-.36.78-.55.34-.24.66-.48.99-.71.22-.16.45-.32.66-.48.39-.28.76-.57,1.14-.85.15-.11.31-.23.46-.34.36-.27.71-.55,1.06-.82.16-.12.32-.24.47-.37.29-.23.57-.46.86-.69.2-.17.41-.33.61-.5.22-.18.43-.36.65-.55.25-.21.51-.43.76-.64.22-.19.44-.39.66-.58.23-.2.47-.4.69-.61.27-.24.54-.49.8-.73.16-.15.33-.3.5-.45.29-.27.56-.53.84-.8.13-.13.27-.26.4-.38.27-.26.53-.53.8-.79.13-.13.26-.26.39-.39.24-.24.46-.48.69-.72.15-.15.3-.31.44-.46.19-.2.37-.41.56-.61.18-.19.35-.38.53-.57.23-.26.46-.52.68-.78.11-.13.23-.26.35-.4.21-.24.4-.49.61-.73.12-.15.25-.3.38-.45.22-.27.43-.54.64-.81.1-.12.2-.25.29-.37.2-.26.4-.53.59-.79.1-.13.2-.26.29-.39.16-.22.31-.44.46-.65.12-.18.25-.35.38-.53.14-.2.27-.41.41-.61.13-.19.26-.38.38-.57.16-.24.31-.48.46-.72.1-.15.2-.31.29-.46.09-.15.18-.3.27-.45.38-.64.75-1.28,1.1-1.92.14-.26.28-.52.41-.78.07-.13.14-.27.21-.4.16-.31.31-.62.46-.93.04-.09.09-.17.13-.26.1-.22.2-.44.3-.66.08-.18.16-.35.24-.53.06-.13.11-.27.17-.4.11-.27.23-.53.34-.8.04-.09.07-.18.1-.26.13-.31.25-.62.37-.93,0-.02.01-.04.02-.06.14-.38.28-.76.42-1.14.02-.05.03-.09.05-.14.12-.35.24-.71.36-1.06.04-.12.07-.24.11-.36.09-.28.18-.56.26-.84.04-.12.07-.24.1-.36.08-.28.16-.57.24-.85.01-.05.03-.1.04-.15.2-.75.38-1.51.55-2.27.07-.3.13-.6.19-.9.02-.11.05-.21.07-.32.05-.24.09-.48.13-.72.03-.17.06-.33.09-.5.02-.14.05-.28.07-.43.04-.27.09-.53.13-.8.03-.18.05-.36.08-.55.03-.23.07-.45.1-.68.03-.26.07-.52.1-.79.02-.15.04-.3.05-.44.03-.27.06-.55.09-.82.01-.14.03-.28.04-.41.02-.2.04-.41.05-.61.02-.21.04-.42.05-.63.05-.61.09-1.22.12-1.84.03-.64.07-1.27.09-1.91.02-.64.03-1.28.04-1.93.02-1.27.01-2.54,0-3.83,0-.48-.02-.96-.03-1.45-.04-1.44-.09-2.88-.16-4.34,0-.14-.01-.27-.02-.41-.01-.3-.03-.6-.04-.91,0,0,0-.01,0-.02-.07-1.43-.16-2.88-.24-4.34-.03-.6-.07-1.2-.11-1.8-.02-.39-.05-.79-.07-1.18-.02-.41-.05-.82-.07-1.24-.06-1.14-.13-2.29-.18-3.45-.03-.52-.05-1.03-.07-1.55-1.98-44.44-30.46-84.47-70.83-103.16-1.92-.89-3.91-1.76-5.96-2.6-.05-.02-.1-.04-.16-.07-.55-.22-1.1-.45-1.66-.67-.16-.06-.31-.13-.47-.19-.37-.15-.76-.29-1.13-.43-.35-.13-.69-.27-1.04-.4-.32-.12-.64-.23-.96-.35-.42-.15-.84-.31-1.26-.46-.4-.14-.81-.28-1.22-.43-.35-.12-.69-.24-1.05-.36-.38-.13-.77-.26-1.16-.38-.39-.13-.77-.26-1.16-.38-.39-.13-.79-.25-1.19-.37-.39-.12-.78-.25-1.17-.37-.43-.13-.87-.26-1.3-.38-.37-.11-.73-.22-1.11-.33-.42-.12-.84-.23-1.26-.35-.4-.11-.79-.22-1.19-.33-.39-.11-.79-.21-1.18-.31-.44-.12-.88-.23-1.32-.35-.41-.1-.82-.2-1.23-.3-.44-.11-.87-.22-1.32-.32-.43-.1-.87-.2-1.3-.3-.43-.1-.86-.2-1.29-.29-.42-.09-.84-.18-1.27-.27-.46-.1-.92-.2-1.38-.29-.45-.09-.91-.18-1.36-.26-.45-.09-.89-.18-1.34-.26v-.02s-.88-1.26-.88-1.26l-.04-.05h0s-.01-.02-.02-.02c-.41-.18-.82-.34-1.23-.51-.21-.08-.41-.18-.62-.26-.49-.19-.97-.36-1.46-.53-.13-.05-.27-.1-.4-.15-1.25-.42-2.49-.77-3.74-1.05-.2-.05-.4-.08-.59-.12-.43-.09-.85-.18-1.28-.26-.27-.05-.54-.08-.8-.12-.36-.06-.72-.12-1.08-.16-.29-.04-.57-.06-.86-.08-.34-.03-.68-.08-1.03-.1-.3-.02-.6-.03-.89-.04-.34-.02-.67-.04-1.01-.05l-.02-.02h0s-.57-.71-.57-.71c-8.93,1.01-16.73,3.14-24.51,7.81-1.33.8-3.9,3.23-5.04,3.5-.94.23-3.3-.39-4.8-.3-6.77.4-15.31.35-21.67,2.38-4.52,1.44-11.71,10.5-13.45,10.65-3.05.26-6.6-.01-9.93.55-2.11.36-5.05,3.5-6.62,5.15-.88.92-1.22,2.41-2.41,3.35-1.62,1.29-3.51,1.06-5.04,1.98-.41.25-6.98,7.22-8.23,7.74-.64.26-2.34-.31-3.4.16-.14.06-5.96,3.8-6.11,9.88-.05,1.88.32,4.04.46,6.03.2,2.85,2.05,6.38,2.52,9.06.04.25.89,8.11-.43,13.07-1.96,7.38-15.98,17.26-16.15,18.49-.19,1.33.79,2.27.94,3.49.22,1.78-.55,3.74-.44,5.53.49,7.7,2.57,23.48,2.54,24-.01.21-11.41-.68-14.51,2.57-.47.49-.48,1.27-.83,1.68-.9,1.07-1.94.93-2.19,2.87-1.98,15.26,8.31,36.94,16.03,49.81,1.05,1.75,1.88,2.82,2.89,4.33.04.06.08.12.12.18,2.88,4.35,4.53,9.84,9.27,12.53,8.53,4.85,21.3,7.55,28.94,9.44.3.07.58.14.86.21,17.93,4.41-12.73-4.15-15.95-9Z"/>
  <g>
    <path class="cls-19" d="M322.99,415.56c-.14-.77-1.05-1.75-1.45-2.6-.3-.64-.4-2.19-.49-2.27-.37-.32-1.98.44-2.67.34-2.26-.34-4.29-1.56-7.54-1.34-4.02.27-4.95,5.14-2.08,7.51.74.61,1.78.52,2.52,1.49.77,1.01.68,2.54,1.32,3.7.73,1.33,3.06,3.21,4.15,4.87,1.79,2.72,3.59,7.34,5.38,9.66.78,1.01,2.17,1.46,2.94,2.57.59.84.9,2.99,1.8,3.19,1.73.4,2.76-1.16,2.75-2.68-.03-5.05-1.44-9.91-2.93-14.67-.55-1.75.79-1.4,2.14-3.34,1.74-2.51-2.73-2.48-2.79-2.94-.02-.14-2.92-2.73-3.06-3.49Z"/>
    <g>
      <path class="cls-6" d="M193.85,445.65c.6.81,1.61.61,1.87.91.65.74-.97,2.44,2.34.37,2.38,2.85.62,2.57-.25,3.89-.33.5-2.55,4.1-2.54,4.35.02.48.55,4,.65,4.18.07.13,1.92,1.24,2.39,1.61.09.07.6-.13.89.11.34.29.36,1.06.62,1.39,2.48,3.18,2.9,5.79,5.36,8.2,1.29,1.26,2.63,2.88,3.66,4.83,1.83-1.34,1.78.34,2,2,.76.28,1.96.72,2.53,1.23l8.98,13.58c.57,1.59,6-1.26,6.07-1.59.54-2.55-3.95-4.95-4.54-6.97-.36-1.21,1.51-.55,2.49-1,2.9-1.32.83-3.54.54-5.03-.18-.9.1-1.92-.13-2.88-.22-.94-3.68-5.33-4.42-5.63-.83-.33-1.78.38-2.71.28-1.99-.2-4.11-.52-5.28-2.27,1.37-2.07,3.25-.48,4.64-.82,3.34-.81-2.23-5.74-2.16-7.45-2.89,1.6-2.05-1.64-3.76-2.99-.81-.64-1.78-.44-2.54-.99-.46-.34-.52-1.21-1.06-1.56-1.71-1.11-2.58-.72-4.09-3.29-2.78-4.73-1.26-6.83-2.4-10.63-.47-1.56-2.62-3.22-2.67-3.44-.24-1.23.07-2.67-.23-4.19-.67-3.34-2.99-8.43-7.18-6.65-.98.42-1.1,1.81-1.79,2.51-.82.84-2.32.21-2.26,3.43.07,3.17,3.36,5,4.09,7.34.67,2.13-.2,5.73.86,7.16Z"/>
      <path class="cls-6" d="M210.86,433.4l.1,1.14c3.76,6.51,7.74,12.88,12.01,19.06,2.68,3.88,6.69,10.05,9.66,13.4.57.65,1.69.93,1.74,1.02.11.18-.6.92-.41,1.38.03.06.73.13,1.1.7,1.44,2.17,2.53,4.92,4.12,6.89.54.66,1.61,1,1.67,1.1.33.57-.74,1.85.03,3.06.12.18,2.22,1.79,2.36,1.82.62.1,1.19-.91,1.93-.94.8-.03,1.49.91,2.42.88,2.71-.09,4.59-2.43,4.33-5.08-.13-1.28-2.68-7.19-3.59-7.72-1.17-.68-11.41.88-11.41-1.87,0-1.82,6.22-1.17,7.51-1.25l-.03-2.23c-4.01-4.37-9.45-18.53-14.16-20.93-2.07-1.05-5.18-.67-6.71-2.06-.61-.55-3.32-5.6-3.44-6.33-.14-.86,1.06-4.58.67-6.67-.23-1.19-5.75-13.26-6.39-13.66-3.28-2.01-5.22,5.1-4.02,7.27-.48.1-1.86-.14-2.01,0-.22.21-.07,5.59.23,6.04.53.78,13.05,4.44,2.28,4.99Z"/>
      <path class="cls-10" d="M245.66,437.93c-.8-.07-7.99,1.16-8.24,1.5.8,6.46,5.47,10,9,14.78,3.77,5.11,7.2,10.46,11.05,15.51,1.42,1.86,5.56,5.51,5.98,7.55.15.71-.14,2.53.04,2.71.15.14,2.15-.23,2.78,1.02.39.78-1.29,2.12-.17,3.39,1.61,1.83,10.01,1.08,8.3-4.54-6.52-9.78-13.51-19.31-18.73-29.88-3.26-2.75-5.56-11.66-10.01-12.05Z"/>
      <path class="cls-4" d="M334.09,506.87c-.12-.83-.87-2.69-.81-3.09.14-.89,3.44-1.31,3.29-2.89-.06-.61-1.75-3.51-2.22-4.31-3.01-5.19-7.85-9.41-10.96-14.6-1.72-.37-3.97-1.83-5.6-1.96-1.27-.11-2.21.49-2.99.45-.97-.05-1.32-1.23-2.47-1.47-3.08-.63-4.72,1.76-3.92,4.51,1.76,1.26,2.23,3.58,3.41,5.03.86,1.05,2.23,1.51,3.01,2.5,1.17,1.47,1.12,3.64,2.52,4.98,4.68-6.48,3.4,1.98,3.88,5.15.9,5.89,9.07,13.74,11.65,19.45.39,1.01,2.52.8,3.15.36.13-.09,1.39-2.57,1.39-2.93-.02-2.66-2.63-5.67-3.15-7.86-.26-1.13-.03-2.22-.18-3.32Z"/>
      <path class="cls-28" d="M231.13,518.03c-.14-.79-2.27-4.02-2.96-4.47-1.15-.75-2.78-.54-3.63-1.13-.35-.24-1.35-1.94-2.13-2.63-.69-.61-1.89-.72-2.27-1.23-.82-1.1-.91-5.18-1.37-6.64-.22-.68-1.02-1.03-1.26-1.75-.93-2.85-1.3-6.36-2.8-8.99-.15-.26-2.42-3.07-2.82-3.43-.37-.33-3.08-2.15-3.28-2.15-.81,0-2.72,4.31-5.75.92-.46,3.19-.57,6.17,1.27,9.01,3.26,5.06,3.27,3.48,4.98,10.05.56,2.15,11.21,18.58,13.04,20.53,3.15,3.37,2.99,1.43,6.32-.33.73-2.52,3.25-4.67,2.69-7.76Z"/>
      <path class="cls-27" d="M224.01,542.89c-.65-2.82-2.65-6.39-3.52-7.62-1.75-2.46-5.73-4.58-6.58-5.95-.81-1.32-.38-2.82-.79-4.23-.15-.52-2.65-4.73-2.89-4.88-.95-.57-5.19-.21-5.89-1.88-.87-2.09,2.6-.55,2.43-2.42-.12-1.31-3.36-3.52-3.51-5.31-3.78,1.16-1.75-1.13-2.04-2.67-.07-.38-1.28-2.07-1.64-2.39-2.67-2.44-4.19.57-4.78.02l.5-1.5c-1.95-.24-3.46,2.6-2.95,4.17.21.65,1.8,1.29,2.46,2.08.96,1.13,1.24,2.83,2.02,3.89.82,1.12,2.64,1.92,3.2,3.42,1.21,3.19-.02,2.15,2.29,5.2,2.34,3.09-.19,4.66-.02,6.51.08.84,3.47,5.93,4.26,6.8,1.3,1.44,2.8,1.86,3.61,2.66,1.02,1,2.97,4.19,3.96,4.81.2.12.4.21.6.28v-1h9.25Z"/>
      <path class="cls-19" d="M269.41,439.78c-.14-.77-1.05-1.75-1.45-2.6-.3-.64-.4-2.19-.49-2.27-.37-.32-1.98.44-2.67.34-2.26-.34-4.29-1.56-7.54-1.34-4.02.27-4.95,5.14-2.08,7.51.74.61,1.78.52,2.52,1.49.77,1.01.68,2.54,1.32,3.7.73,1.33,3.06,3.21,4.15,4.87,1.79,2.72,3.59,7.34,5.38,9.66.78,1.01,2.17,1.46,2.94,2.57.59.84.9,2.99,1.8,3.19,1.73.4,2.76-1.16,2.75-2.68-.03-5.05-1.44-9.91-2.93-14.67-.55-1.75.79-1.4,2.14-3.34,1.74-2.51-2.73-2.48-2.79-2.94-.02-.14-2.92-2.73-3.06-3.49Z"/>
      <path class="cls-19" d="M233.36,408.23c1,2.2,2.2,6.24,4.9,7.03,1.42.41,3.04-.47,4.19.82,1.61,1.8.57,5.31,1.1,7.42.26,1.05,4.36,6.99,5.25,7.29.32.11,2.67-.06,3-.22.75-.36.74-1.15,1.17-1.4,1.14-.66,3.27-.46,2.98-2.79l.99.5c1.48-2.85-.62-3.96-.97-5.78-.25-1.32.23-3.91-.24-5.02-.51-1.18-2.22-1.48-2.82-2.44-.77-1.24-.34-3.4-1.68-4.33-1.14-.79-3.03-.32-4.45-1.06-1.15-.6-1.21-1.66-1.43-1.8-.15-.09-.75.32-1.05.2-2.6-.97-9.13-3.4-11.41-1.07-1.65,1.68.27,2.23.47,2.66Z"/>
      <path class="cls-4" d="M327.16,525.08l-1.5.5.5-2c-.67-.96-1.82-3.36-2.73-4.04-.66-.5-1.72-.41-1.79-.47-.11-.11.65-.97.45-1.42-.04-.09-.75-.1-.94-.44-4.38-7.89-4.37-1.92-11.03-.64-.26,1.66,1.36,2.81,1.5,4.3.26,2.83-2.58,8.57,1.98,10,3.6,1.13,4.51-1.69,6.39,3.13.33.85.87,4.34,1.21,4.55.42.26,1.44-.07,2.08.07.64.14,1.88,3.03,5,2.4,2.42-.48,2-2.66,1.87-4.66-.27-4.08-1.05-7.86-3-11.28Z"/>
      <path class="cls-4" d="M379.81,492.5l-1.5.5.5-2c-.67-.96-1.82-3.36-2.73-4.04-.66-.5-1.72-.41-1.79-.47-.11-.11.65-.97.45-1.42-.04-.09-.75-.1-.94-.44-4.38-7.89-4.37-1.92-11.03-.64-.26,1.66,1.36,2.81,1.5,4.3.26,2.83-2.58,8.57,1.98,10,3.6,1.13,4.51-1.69,6.39,3.13.33.85.87,4.34,1.21,4.55.42.26,1.44-.07,2.08.07.64.14,1.88,3.03,5,2.4,2.42-.48,2-2.66,1.87-4.66-.27-4.08-1.05-7.86-3-11.28Z"/>
      <path class="cls-5" d="M374.83,532.53c-1.17-.76-1.72-3.82-.6-4.41-1.62-.56-2.65-1.33-1.5-3.01l-1.29-.16c-1.27-2.27-2.97-3.5-5.09-4.67.58-5.89.32-6.05-5.89-5.72-.42-.03-.83-.12-1.19-.37-.7-.48-6.41-9.36-4.61-10.69-5.15-3.62-5.53,4.94-2.42,7.87.06,1.97,1.07,3.69,3.03,5.15.67,4.85,3.12,7.32,7.36,7.39l3.38,4.53c.17,1.78,2.95,4.49,4.62,4.77,1.19.21,2.63-.32,3.72-.78l.88.69c-.31-.27-.42-.48-.4-.6Z"/>
      <path class="cls-5" d="M370.63,533.23c-1.67-.29-4.44-3-4.62-4.77l-3.38-4.53c-4.24-.07-6.69-2.53-7.36-7.39-1.96-1.47-2.97-3.18-3.03-5.15-3.11-2.93-2.73-11.49,2.42-7.87-1.81,1.33,3.9,10.21,4.61,10.69.35.24.77.33,1.19.37,6.21-.33,6.47-.17,5.89,5.72,2.13,1.17,3.82,2.4,5.09,4.67l1.29.16c-.95-1.53-2.1-3.13-3.48-4.29-.69-.58-1.86-.68-1.96-.78-.63-.7.52-3.09.32-4.07-.73-3.64-5.26-1.98-7.81-2.48-.5-2.11-3.96-5.86-4.42-7.4-.32-1.06.24-1.56.28-2.34.15-3.04-5.91-3.36-6.45,1.63-.36,3.26,1.04,3.92,2.1,6.38.34.79-.02,1.64.24,2.21.39.85,2.46,2.1,3.07,3.45.9,1.98.82,4.54,2.85,6.17,1.42,1.15,3.64.59,4.62,1.15.24.14,2.96,3.99,3.25,4.52.39.71.19,1.92.48,2.27.19.22,1.17.2,1.65.58.61.49,1.18,1.5,1.76,1.77,1.88.86,4.29.14,6.01-.74l-.88-.69c-1.09.46-2.53.99-3.72.78Z"/>
      <path class="cls-19" d="M308.77,503.54c1.87-.13,5.32-1.7,4.05-3.96-4.34-5.36-7.58-13.58-12.01-18.58-.72-.82-4.87-4.19-5.62-4.41-1.58-.47-3.65-.2-3.7,1.64-.09,3.75,1.12,6.59,4.02,9.08,1.62,1.39,3.61,2.3,4.75,4.25.32.55.99,2.97.74,3.4-.21.35-1.59.15-1.93,1.85-.3,1.5-.09,3.8,1.34,4.65,1.03.61,7.16,2.17,8.36,2.08Z"/>
      <path class="cls-6" d="M191.72,534.97c-1.33-2.21-5.17-6.79-5.96-8.57-2.3-5.13-3.37-11.28-4.86-16.69-.31-1.11.03-2.4-.34-3.67-.16-.55-2.9-4.57-3.28-4.76-.18-.09-3.86.14-4.01.28-.26.25-.1,6.64.08,7.19.37,1.13,2,.99,2.32,1.44.23.33.44,2.42.87,3.39,1.41,3.24,3.93,6.87,4.9,10.13.92,3.06.15,5.7,1.25,8.78,1.68,4.72,7.38,9.78,9.37,14.67,2.68.25,1.95-7.14,1.64-8.64-.24-1.17-1.35-2.49-1.98-3.54Z"/>
      <path class="cls-25" d="M220.53,413.97c.98,1.94,1.49,4.61,2.63,6.37,1.32,2.03,3.54,2.31,5.23,4.3,2.14,2.5,4.82,9.51,6.74,10.8,1.04.69,2.19.59,3.15-.19,3.23-2.65-.56-4.68-.81-5.71-.25-1.02,1-1.54.88-2.77-.16-1.68-4.8-11.28-6.01-12.59-1.51-1.63-7-4.79-9.2-4.83-2.07-.04-4.03,1.44-3.8,3.7.03.31.88.33,1.18.93Z"/>
      <path class="cls-11" d="M267.18,420.39c.37,1.27,1.73,1.43,2.06,1.99,1.44,2.47-.39.82,2.38,3.49.72.69.96,1.61,1.91,2.25,2.04,1.37,1.92,0,2.72-.03.17,0,2.95,1.14,3.05,1.28,1.53,2.04-.87,1.98-1.27,2.28-2.75,2.03,4.42,10.13,5.56,12.22.84.47,3.66-1.67,3.86-2.27.21-.62.08-5.78-.12-6.69-.48-2.22-5.43-8.72-7.11-11-.26-.35-1.03-.44-1.13-.62-.25-.43.93-3.13-.65-5.6-2.93-4.59-12.13-.3-11.26,2.71Z"/>
      <path class="cls-3" d="M178.23,558.99c-.2-.49-2.87-4.04-3.09-4.17-1.48-.92-2.06-.02-3.79-2.48-4-5.7-6.7-13.15-9.16-19.65-5.72-.88-6.08.9-4.68,5.93,1.87,6.72,7.51,15.76,12.75,20.32.66.58,5.05,4.09,5.38,4.18,2.86.79,3.52-1.83,2.6-4.14Z"/>
      <path class="cls-28" d="M262.95,530.85c-1.58.48-3.01,2.99-5.28,1.31-4.28-3.17-3.58-14.75-6.58-15.97-.7-.28-1.76-.11-2.57-.44-1.57-.65-5.14-3.45-5.61.12-.1.72,1.65,7.31,2.07,7.94,1.01,1.54,4.14,1.69,5.31,2.96,1.68,1.82,1.72,6.73,4.64,7.64,1.54.48,10.59.46,11.93-.15,3-1.38-.49-4.45-3.91-3.41Z"/>
      <path class="cls-8" d="M277.5,521.36c-3.62-3.33-7.06-7.04-10.33-10.72-3.93-2.6-5.88,6.6-1.19,6.46-2.15,2.4,1.97,4.41,4.01,5.26.21.5-1.55-.12-.76.75,1.77,1.96,4.41,1.04,5.97,2.56.83.81,1.41,1.43,2.12,2.1.87.83.81,2.02,2.45,2.34,4.04.78,6.93-.58,3.57-4.32-1.35-1.5-4.25-2.95-5.85-4.43Z"/>
      <path class="cls-4" d="M199.42,553.79c.17,1.67,2.56,4.21.41,4.64.45,1.25,4.67.47,6.01,1.26-.42-1.97.76-1.23,1.33-1.66.39-.3.41-1.06,1-1.26,1.61-.55,4.57.39,3.32-2.95-2.4-1.67-8.46-12.48-10.41-12.67-6.06-.6-1.4,6.62-1.27,9.34.06,1.19-.51,2.09-.39,3.3Z"/>
      <path class="cls-9" d="M189.32,473.73c3.57,3.95,3.6,11.34,11.22,10.27,5.38-.76-.24-3.39-1.41-4.55-1.47-1.46-4.71-6.76-4.78-8.76-.05-1.42,1.12-3.24.21-4.72-.15-.25-3.1-2.44-3.53-2.52-1.02-.17-3,.34-3.58,1.16-.37.53-1.03,3.84-1.1,4.68-.34,4.11,1.03,2.3,2.96,4.43Z"/>
      <path class="cls-15" d="M286.74,503.5c-1.82,3.4-2.63,4.33.29,7.83.65.78,1.95,1.29,2.24,1.77.63,1.06.59,4.4,1.51,5.51.25.31,7.39,1.57,7.8,1.28,2.45-1.71-.92-3.99-1.24-4.77-.2-.5.27-1.3,0-2.01-1.32-3.42-4.6-6.82-6.79-9.8-.64-.86-.49-2.19-1.73-2.24-.34-.01-1.5.36-1.67.62-.25.36-.1,1.26-.4,1.83Z"/>
      <path class="cls-1" d="M272.7,497.57c.33,1.22,3.02,3.98,4.3,4.28,1.76.42,1.97-1.64,2.52,2.21,2.62.05,5.03-3.13,4.4-5.63-.18-.72-1.17-1.6-1.5-2.53-.53-1.5-.65-3.79-1.61-4.91-1.11-1.29-4.05-1.62-5.69-2.32-.59-.25-.62-.96-.74-1.01-1.41-.61-3.38.32-3.79,1.73-.55,1.86.38,2.57.79,4.03.14.51-.38,1.39-.17,1.66.42.55,1.69.38,1.8.48.14.14-.5,1.28-.3,2.01Z"/>
      <path class="cls-10" d="M251.06,494.68c.37,1.53,4.69,7.71,5.89,9,2.77,2.98,6.31.51,5.4-3.77-.4-1.91-2.86-4.52-3.18-5.86-.28-1.16.79-2.85.18-3.93-.37-.64-2.72-.96-3.36-1.39-.85-.57-1.34-2.46-1.63-2.63-3.67-2.13-3.83,6.44-3.31,8.57Z"/>
      <path class="cls-14" d="M292.75,453.48c1.28,2.14.33,5.39,4.29,3.71,2.55-1.09,1.3-6.57.78-8.77-.48-2.03-.53-1.82-1.56-3.2-2.16-2.87-6.31-4.73-6.48.16-.01.29.78,5.43.86,5.71.25.89,1.59,1.51,2.12,2.39Z"/>
      <path class="cls-22" d="M366.27,463.69c.38.44-.05,2.57,2.17,3.81,1.09.61,2.16.4,3.14.87,1.29.61,5.56,3.59,5.9,3.61.59.03.67-.52.25-1.23-1.99-3.33-5.28-6.73-7.74-9.81-1.33-1.67-.73-2.91-4.05-2.72-2.1.12-4.14,2.25-2.26,4.03.77.73,2.03.8,2.59,1.45Z"/>
      <path class="cls-26" d="M173.47,539.68c.19.69,7.44,10.7,8.31,11.6,4.79,5.01,5-2.35,3.54-4.78-.26-.43-1.08-.63-1.52-1.08-2.65-2.75-1.95-1.31-4.3-2.73-1.02-.62-1.59-2.57-2.39-3.38-1-1.01-4.28-1.92-3.63.37Z"/>
      <path class="cls-20" d="M268.37,410.49c1.34-5.6-2.53-3.9-3.33-4.71-.16-.16-.08-1.8-.61-2.65-1.02-1.64-5.51-2.71-6.96-1.05,1.19,1.73,1.78,3.79,2.99,5.52,1.38,1.96,6.76,7.68,7.9,2.9Z"/>
      <path class="cls-29" d="M238.26,530.63c-1.48-.76-2.18-.64-2.37-.75-.23-.13-.3-.92-.61-1.11-2.48-1.54-7.88.79-5.42,4.15,1.24,1.69,9.28,2.37,10.33.73,1.67-2.6-.78-2.42-1.93-3.02Z"/>
      <path class="cls-15" d="M169.97,534.16c2.87,2.08,4.47-1.71,3.8-4.19-.13-.49-1.03-.54-1.21-.88-.49-.92-.5-1.95-.89-2.64-.08-.13-1.86-2.18-1.99-2.25-1.74-.98-3.04,2.45-2.83,4.03.16,1.18,2.22,5.28,3.12,5.93Z"/>
      <path class="cls-9" d="M174.48,490.53c.3.01.31.84.67.97.94.35,2.42.32,3.12.8.98.66.81,2.57,1.49,3.02.75.49,2.35.06,2.52.23.12.12-.21,2.31.65,3.36,1.03,1.25,5.01,2.61,6.31,1.58.13-.1.66-2.75.59-3.19-.2-1.36-1.75-1.27-1.99-2.09-.21-.71.7-2.27.36-3.82-.27-1.25-1.93-2.63-2.61-3.93-1-1.93-1.78-5.67-3.97-6.6-.54-.23-3.83-.35-4.34-.12-.2.09-3.11,2.58-3.25,2.8-1.18,1.79-1.42,5.45-2.28,7.49.93.3,2.02-.52,2.71-.5Z"/>
      <path class="cls-28" d="M246.72,507.6c.57-.81.24-5.15-.29-6.15-2.48-2.25-7.67-5.17-7.91-8.75-.05-.7,1.18-1.46.4-2.66-3.35-.17-5.85,2.16-5,5.67.11.45,1.12.14,1.02,1.05-.12,1.12-1.19,1.95-1.08,3.55.02.23.89,4.15,1.01,4.51.18.53,1.47,2.84,1.83,3.23,1.41,1.55,4.57,1.13,3.74-1.47l.5,1.51c1.51-.84,4.89.8,5.79-.48Z"/>
      <path class="cls-6" d="M368.71,436.92c-1.42-1.24-4.23-.64-5.31-1.46-.34-.26-1.6-3.13-2.21-4.06-3.01.64-2-1.36-2.02-2.17-.05-.11-.1-.21-.15-.32-.4-.38-1.99-1.72-2.34-2.02-.6.6-1.43.38-2.48-.66-1.24-.44,3.86,8.57,4.14,8.66l-.65,1.02,7.27,8.02.75-3c-1.55-.55-.62-2.5.79-2.08.07.02.14.04.21.08.1-.16-.04-.72.23-1.02.63-.69,1.85-.06,1.77-.98Z"/>
      <path class="cls-2" d="M305.61,401.62c1.36.31,2.35.88,2.97,1.71l-1.06-1.36c-3.22-.98-4.37-2.37-3.45-4.15l-2-1.5c.57.68.29.94-.5.5v2.51c1.28-.21,1.3.02.5,1,1.12-.14,2.3.3,3.55,1.3Z"/>
      <path class="cls-2" d="M307.51,401.97l1.06,1.36c.95-2.66-2.1-2.57-3.28-3.49-.67-.53-.83-1.38-1.23-2.02-.92,1.79.23,3.17,3.45,4.15Z"/>
      <path class="cls-2" d="M302.06,396.32c-.28.04-.36.32-.5.5.79.44,1.07.18.5-.5Z"/>
      <path class="cls-2" d="M301.56,399.32c.17.41.12.57.5,1,.8-.98.77-1.21-.5-1Z"/>
      <path class="cls-2" d="M308.58,403.33c-.62-.82-1.61-1.39-2.97-1.71-1.25-1-2.43-1.44-3.55-1.3,1.19,1.36,4.6,3.35,6.51,3.01Z"/>
      <path class="cls-11" d="M299.06,418.37c-1.3,1.44-9.46.9-7.52-2-.2-.98.36-1.33-.5-2.51-.99,1.1-2.16-.26-1.5-1.5-.38-.38-1.18-.65-2-1.5-1.37.36-1.52-.05-.5-1-.57-.62-1.38-1.96-2.01-2.25-2.33-1.07-7.15.65-6.54,3.41,1.79,1.78,4.54,4.22,5.74,6.4.77,1.4,1,3.8,2.07,4.94,1.04,1.1,2.87.97,4,2.01,1.35,1.23.89,3.77,3.52,4.02,3.4.33,2.4-3.27,3.19-3.79.83-.55,4-.08,4.32-.68.27-2.39.14-4.73-2.28-5.56Z"/>
      <path class="cls-10" d="M308.01,428.14c-.8-.07-7.99,1.16-8.24,1.5.8,6.46,5.47,10,9,14.78,3.77,5.11,7.2,10.46,11.05,15.51,1.42,1.86,5.56,5.51,5.98,7.55.15.71-.14,2.53.04,2.71.15.14,2.15-.23,2.78,1.02.39.78-1.29,2.12-.17,3.39,1.61,1.83,10.01,1.08,8.3-4.54-6.52-9.78-13.51-19.31-18.73-29.88-3.26-2.75-5.56-11.66-10.01-12.05Z"/>
      <path class="cls-4" d="M343.19,493.36c.17,1.67,2.56,4.21.41,4.64.45,1.25,4.67.47,6.01,1.26-.42-1.97.76-1.23,1.33-1.66.39-.3.41-1.06,1-1.26,1.61-.55,4.57.39,3.32-2.95-2.4-1.67-8.46-12.48-10.41-12.67-6.06-.6-1.4,6.62-1.27,9.34.06,1.19-.51,2.09-.39,3.3Z"/>
      <path class="cls-28" d="M346.34,441.56c.57-.81.24-5.15-.29-6.15-2.48-2.25-7.67-5.17-7.91-8.75-.05-.7,1.18-1.46.4-2.66-3.35-.17-5.85,2.16-5,5.67.11.45,1.12.14,1.02,1.05-.12,1.12-1.19,1.95-1.08,3.55.02.23.89,4.15,1.01,4.51.18.53,1.47,2.84,1.83,3.23,1.41,1.55,4.57,1.13,3.74-1.47l.5,1.51c1.51-.84,4.89.8,5.79-.48Z"/>
      <path class="cls-4" d="M303.3,468.48c.17,1.67,2.56,4.21.41,4.64.45,1.25,4.67.47,6.01,1.26-.42-1.97.76-1.23,1.33-1.66.39-.3.41-1.06,1-1.26,1.61-.55,4.57.39,3.32-2.95-2.4-1.67-8.46-12.48-10.41-12.67-6.06-.6-1.4,6.62-1.27,9.34.06,1.19-.51,2.09-.39,3.3Z"/>
      <path class="cls-28" d="M349.95,471.54c.57-.81.24-5.15-.29-6.15-2.48-2.25-7.67-5.17-7.91-8.75-.05-.7,1.18-1.46.4-2.66-3.35-.17-5.85,2.16-5,5.67.11.45,1.12.14,1.02,1.05-.12,1.12-1.19,1.95-1.08,3.55.02.23.89,4.15,1.01,4.51.18.53,1.47,2.84,1.83,3.23,1.41,1.55,4.57,1.13,3.74-1.47l.5,1.51c1.51-.84,4.89.8,5.79-.48Z"/>
    </g>
  </g>
  <g>
    <path class="cls-12" d="M271.21,685.8c-.06.05-.11.1-.17.14.06-.05.11-.1.17-.14Z"/>
    <path class="cls-12" d="M273.66,683.8c-.27.22-.53.44-.8.65.27-.22.53-.43.8-.65Z"/>
    <path class="cls-12" d="M271.97,685.17s-.03.02-.04.03c.01-.01.03-.02.04-.03Z"/>
    <path class="cls-12" d="M285.06,687.61c-.11.26-.21.53-.33.79.11-.26.22-.52.33-.79Z"/>
    <path class="cls-12" d="M275.33,682.38c-.24.21-.49.43-.73.63.25-.21.49-.42.73-.63Z"/>
    <path class="cls-12" d="M276.14,681.64c-.22.21-.44.41-.66.61.22-.2.45-.4.66-.61Z"/>
    <path class="cls-12" d="M276.89,680.89c-.22.23-.44.45-.67.67.23-.22.46-.44.67-.67Z"/>
    <path class="cls-12" d="M274.44,683.14c-.23.19-.46.39-.7.58.23-.19.47-.39.7-.58Z"/>
    <path class="cls-12" d="M269.52,687.25s-.08.08-.13.11c.04-.04.08-.08.13-.11Z"/>
    <path class="cls-12" d="M277.68,680.03c-.21.24-.42.47-.64.71.22-.23.44-.47.64-.71Z"/>
    <path class="cls-12" d="M286.76,682.82s-.01.04-.02.06c0-.02.01-.04.02-.06Z"/>
    <path class="cls-12" d="M286.02,685.08c-.07.2-.14.41-.21.61.07-.2.14-.41.21-.61Z"/>
    <path class="cls-12" d="M269.83,689.36c.17-.08.34-.17.51-.25-.17.09-.34.17-.51.25Z"/>
    <path class="cls-12" d="M285.53,686.42c-.08.21-.16.42-.24.63.08-.21.16-.42.24-.63Z"/>
    <path class="cls-12" d="M286.43,683.85c-.05.15-.1.3-.15.45.05-.15.1-.3.15-.45Z"/>
    <path class="cls-12" d="M287.34,680.91c-.05.18-.11.37-.16.55.05-.18.11-.37.16-.55Z"/>
    <path class="cls-12" d="M271.27,688.61c.23-.13.46-.26.68-.41-.23.15-.46.28-.68.41Z"/>
    <path class="cls-12" d="M270.57,688.99c.16-.08.32-.17.48-.26-.16.09-.32.17-.48.26Z"/>
    <path class="cls-12" d="M287.77,679.39c-.06.21-.12.42-.17.62.06-.21.12-.41.17-.62Z"/>
    <path class="cls-12" d="M270.29,686.57s-.09.07-.13.11c.04-.04.08-.07.13-.11Z"/>
    <path class="cls-12" d="M310.58,693.5c-.08-.05-.16-.1-.24-.16.08.06.16.11.24.16,0,0,0,0,0,0Z"/>
    <path class="cls-12" d="M283.11,383.52c.34,0,.67.03,1.01.05-.33-.02-.65-.04-.98-.05-.02,0-.03-.02-.05-.03h0s.02.02.02.02Z"/>
    <path class="cls-12" d="M307.08,688.52s0,.06,0,.09c0-.03,0-.06,0-.09,0,0,0,0,0,0Z"/>
    <path class="cls-12" d="M313.09,698.51h0s.1.04.14.07c-.05-.02-.1-.04-.14-.07Z"/>
    <path class="cls-12" d="M313.66,698.72c.11.05.22.1.32.16,0,0,0,0,0,0-.1-.06-.21-.11-.32-.16Z"/>
    <path class="cls-12" d="M298.12,386.94c-.41-.18-.82-.34-1.23-.51.41.17.82.33,1.23.51,0,0,0,0,0,0Z"/>
    <path class="cls-12" d="M374.1,582.52c.43-.28.85-.55,1.27-.83-.42.28-.84.55-1.27.83,0,0,0,0,0,0Z"/>
    <path class="cls-12" d="M299.06,388.3c.45.08.89.17,1.34.26-.44-.08-.87-.17-1.31-.25-.02,0-.03-.02-.04-.03l-.86-1.25.86,1.26v.02Z"/>
    <path class="cls-12" d="M278.93,678.38c-.17.26-.34.51-.52.75.18-.25.36-.5.52-.75Z"/>
    <path class="cls-12" d="M279.89,676.56c-.12.28-.24.56-.38.83.14-.27.27-.55.38-.83Z"/>
    <path class="cls-12" d="M280.28,675.46c-.09.31-.2.61-.31.9.12-.29.22-.59.31-.9Z"/>
    <path class="cls-12" d="M279.44,677.51c-.13.25-.27.49-.42.72.15-.24.29-.48.42-.72Z"/>
    <path class="cls-12" d="M278.29,679.29c-.18.23-.36.46-.56.69.19-.23.38-.46.56-.69Z"/>
    <path class="cls-12" d="M315.19,699.27c-.6-.17-1.05-.3-1.21-.39.05.03.1.06.14.09.31.11.68.21,1.06.31Z"/>
    <path class="cls-12" d="M246.94,684.48s.01,0,.02,0c-.01,0-.03,0-.04,0,0,0,.01,0,.02,0Z"/>
    <path class="cls-12" d="M326.89,707.88c-.09-.11-.17-.21-.24-.28-.06-.06-.12-.12-.18-.18.14.16.27.31.4.44,0,0,.01.01.02.02Z"/>
    <path class="cls-12" d="M294.55,675.29v-.76s0,.35,0,.76Z"/>
    <path class="cls-12" d="M251.48,682.52s.03-.02.04-.04c-.02.01-.03.03-.05.04,0,0,0,0,0,0Z"/>
    <path class="cls-12" d="M284,700.4s0,.02,0,.03c.01.05.02.11.02.16,0,.97,0,1.95,0,2.92,0-1,0-2.01,0-3.01,0-.03-.02-.08-.02-.11Z"/>
    <path class="cls-12" d="M232.58,717.8s-.03.03-.05.05h.1s-.03-.03-.06-.05Z"/>
    <polygon class="cls-12" points="266.57 705.48 266.48 705.53 266.48 705.53 266.57 705.48"/>
    <path class="cls-12" d="M281.18,699.11c-.07.02-.14.05-.22.07.1-.03.19-.06.29-.09-.02,0-.05,0-.07.02Z"/>
    <path class="cls-12" d="M266.55,705.51c.28-.08.56-.15.85-.21-.29.06-.57.12-.85.21Z"/>
    <path class="cls-12" d="M280.28,675.46c.04-.15.05-.26.04-.34,0,.12,0,.24-.04.34Z"/>
    <path class="cls-12" d="M266.86,705.35h0c-.09.06-.18.11-.28.14.1-.03.19-.08.28-.14Z"/>
    <path class="cls-12" d="M268.63,688.1s.06-.06.09-.09c-.02.02-.05.04-.07.07,0,0-.01.01-.02.02Z"/>
    <path class="cls-12" d="M234.84,715.89c.59.05,1.17.11,1.76.14-.7-.04-1.18-.17-1.76-.14Z"/>
    <path class="cls-12" d="M269.99,720.42c-.55.46-1.03.96-1.28,1.3.23-.31.66-.77,1.28-1.3Z"/>
    <path class="cls-12" d="M283.02,710.81s0,0,0,0c.67-.22,1.65-.84,2.47-1.58-.82.74-1.8,1.36-2.47,1.58,0,0,0,0,0,0Z"/>
    <path class="cls-12" d="M328.88,717.83c-.18.17-.57.12-1.26-.28.82.47,1.18.51,1.26.28Z"/>
    <path class="cls-12" d="M290.08,685.1c-.34,1.85-1.08,4.05-1.42,6.2.35-2.17,1.09-4.24,1.41-6.12,0-.03,0-.05.01-.08Z"/>
    <path class="cls-12" d="M290.53,676.46s0,.03,0,.04c0,0,0,.02,0,.03,0-.02,0-.05,0-.07h0Z"/>
    <path class="cls-12" d="M279.29,696.88c-.18.2-.38.38-.58.57.19-.19.39-.38.58-.57Z"/>
    <path class="cls-12" d="M275.81,699.68c-.08.05-.16.09-.25.14.09-.05.16-.09.25-.14Z"/>
    <path class="cls-12" d="M284.57,688.76c-.14.32-.28.63-.43.94.15-.31.29-.63.43-.94Z"/>
    <path class="cls-12" d="M276.95,699.04s.08-.05.11-.08h0s-.08.05-.12.08c0,0,0,0,0,0Z"/>
    <path class="cls-12" d="M281.79,693.78c-.73,1.06-1.54,2.09-2.46,3.06.92-.97,1.73-2,2.46-3.06Z"/>
    <path class="cls-12" d="M278.22,697.94c-.16.15-.34.29-.5.44.17-.15.34-.29.5-.44Z"/>
    <path class="cls-12" d="M282.48,692.71c-.15.25-.3.5-.47.74.16-.24.31-.49.47-.74Z"/>
    <path class="cls-12" d="M283.91,690.16c-.14.28-.27.55-.42.83.15-.27.28-.55.42-.83Z"/>
    <path class="cls-12" d="M283.3,691.31c-.17.31-.34.62-.52.92.18-.3.35-.61.52-.92Z"/>
    <path class="cls-12" d="M269.65,689.45s-.02,0-.03.01c0,0,0,0,0,0,0,0,.02,0,.03-.01Z"/>
    <path class="cls-12" d="M274.49,700.39c-.17.09-.33.17-.5.26.17-.09.33-.17.5-.26Z"/>
    <path class="cls-12" d="M273.94,700.67c-.25.13-.51.26-.76.38.25-.12.51-.25.76-.38Z"/>
    <path class="cls-12" d="M275.21,700.01c-.14.07-.28.15-.42.22.14-.08.28-.15.42-.22Z"/>
    <path class="cls-12" d="M272.99,701.14c-.73.35-1.43.66-2,.88.57-.21,1.27-.53,2-.88Z"/>
    <path class="cls-12" d="M288.01,678.55s0,0,0,0c.01-.05.02-.1.03-.16,0,0,0-.01,0-.02,0,0,0,0,0,0,0,.06-.02.11-.03.17Z"/>
    <path class="cls-23" d="M281.58,699.07c-.11-.02-.22,0-.33.02-.1.03-.19.06-.29.09-.12.04-.23.08-.35.12-.13.04-.25.09-.38.14-.11.04-.23.09-.34.13-.13.05-.25.1-.37.16-.11.05-.22.1-.33.15-.12.06-.25.11-.37.17-.11.05-.22.11-.33.16-.12.06-.24.12-.36.19-.11.06-.22.11-.33.17-.12.07-.24.13-.37.2-.11.06-.21.12-.32.18-.12.07-.24.14-.37.21-.11.06-.21.12-.32.18-.12.07-.25.15-.37.22-.11.06-.21.13-.32.19-.14.08-.28.17-.41.25-.18.11-.35.21-.53.32-.11.07-.23.14-.34.2-.12.07-.25.15-.37.22-.1.06-.2.12-.3.18-.13.07-.25.14-.38.22-.1.06-.2.11-.3.17-.13.07-.26.14-.39.21-.09.05-.19.1-.28.15-.14.07-.28.14-.42.21-.09.04-.18.09-.27.13-.16.08-.32.15-.47.22-.07.03-.14.07-.22.1-.23.1-.46.2-.7.29-.85.32-1.67.45-2.46.6-.16.03-.32.06-.47.09-.29.06-.57.12-.85.21-.02,0-.05.01-.07.02h0c-.27.08-.55.16-.83.24-4.24,1.19-9.47,1.96-13.19,3.52-3.1,1.3-5.14,3.1-7.62,4.52-.69.39-1.41.76-2.19,1.08-.31.13-.64.25-.97.36-.67.22-1.4.41-2.19.55-.59.11-1.22.19-1.89.24h0c-.19.01-.37.02-.54.02,0,0-.02,0-.03,0-.15,0-.3,0-.43-.01-.59-.03-1.17-.09-1.76-.14-.44.02-.94.14-1.63.47-.3.14-.48.47-.43.8.03.24-.05.46-.2.63.02.02.03.04.06.06h-.1s-.1.07-.16.1c.4.06.77.11.87.12,8.08.42,12.37-1.38,19.21-5.03l5.51-2c8.19-2.81,17.16-4.25,23.96-9.94.06-.05.13-.12.18-.19.34-.44.59-.8.78-1.09-.19-.52-.33-.89-.36-.94,0,0-.72.24-.94.19Z"/>
    <path class="cls-23" d="M266.58,705.49c.1-.03.19-.08.28-.14l-.28.13-.09.04h0s0,0,0,0c.03,0,.06-.02.1-.03Z"/>
    <path class="cls-21" d="M308.55,702.5c2.24,2.46,3.02,6.59,2.51,9.79-.17,1.08-.52.74-.98,1.76-.99,2.2-1.64,5.42-1.54,7.77.1,2.28,2.05,5.38,2.02,6.51-.05,1.65-4.35,4.69-3.48,7.26,1.5-.44,4.21-5.03,5.26-4.87,3.24,2.28,4.44,5.57,4.76,9.38.2.2.77-.44.89-.86,1.99-7.07-8.05-11.18-6.78-19.32.09-.61,1.66-5.21,1.89-5.38.89-.66,2.42,2.58,3.05,3.2,1.52,1.51,3.69,2.63,5.46,3.81,0-.03.5.08.5-.26-.02-1.74-6.37-5.81-7.29-8.73-.7-2.21-.14-6.02-1.22-8.54,0,0,0,0-.02-.01-1.95-.75-3.63-1.2-5.02-1.52Z"/>
    <path class="cls-7" d="M224.15,683.66c.1-.04.2-.09.3-.13.09-.04.18-.08.27-.12.1-.04.19-.09.29-.13.09-.04.17-.08.26-.12.1-.05.2-.09.29-.14.12-.06.23-.11.34-.17.1-.05.2-.1.3-.15.08-.04.17-.08.25-.12.08-.04.16-.08.24-.11.08-.04.16-.07.24-.11.07-.03.15-.07.23-.1.08-.04.16-.07.24-.1.07-.03.15-.06.22-.09.08-.03.17-.06.25-.09.07-.03.15-.05.22-.08.08-.03.17-.05.26-.08.08-.02.15-.05.23-.07.09-.02.18-.05.27-.07.08-.02.15-.04.23-.06.1-.02.19-.04.29-.05.08-.01.16-.03.24-.04.1-.02.22-.03.32-.04.08,0,.16-.02.25-.03.12-.01.24-.01.36-.02.08,0,.16-.01.25-.01.14,0,.29,0,.44,0,.07,0,.14,0,.22,0,.23,0,.47.02.72.04.3.02.59.06.89.1.1.01.2.04.29.05.2.04.4.07.6.11.12.03.24.06.36.09.18.04.36.08.54.13.13.03.26.07.39.11.17.05.34.09.52.15.14.04.27.09.41.13.17.05.33.1.5.16.16.05.31.1.47.16.15.05.29.1.44.15.3.1.61.21.91.31.13.04.26.09.4.13.18.06.35.12.53.18.14.05.28.09.42.14.17.05.34.11.5.16.14.04.28.08.42.12.17.05.34.1.5.15.14.04.29.07.43.11.17.04.33.09.5.13.15.03.29.06.44.09.17.03.33.07.5.1.15.03.3.04.44.06.17.02.33.05.5.07.15.02.3.02.44.03.17.01.33.03.5.03.15,0,.3,0,.44,0,.17,0,.33,0,.5,0,.15,0,.3-.03.45-.05.17-.02.33-.03.5-.06.01,0,.03,0,.04,0,.22-.06.46-.14.7-.23.04-.02.08-.03.13-.04.24-.09.49-.18.74-.28.06-.02.12-.05.18-.07.26-.1.52-.21.77-.31.26-.1.51-.2.76-.3.03-.01.06-.02.09-.03.42-.16.81-.39,1.15-.68.02-.01.03-.03.05-.04.08-.07.16-.14.24-.21.11-.09.21-.18.32-.28.1-.08.19-.17.29-.25.14-.12.28-.24.42-.36.13-.11.26-.22.39-.34.09-.08.17-.15.26-.23.11-.1.22-.19.34-.29.09-.08.18-.15.27-.23.11-.09.22-.19.33-.28.09-.08.18-.16.28-.23.11-.09.22-.18.33-.28.09-.08.19-.15.28-.23.11-.09.22-.18.33-.27.1-.08.19-.15.29-.23.11-.09.22-.17.34-.26.1-.07.19-.15.29-.22.11-.08.23-.17.34-.25.1-.07.19-.14.29-.21.12-.08.23-.16.35-.24.1-.07.19-.13.29-.19.12-.08.24-.15.36-.22.1-.06.19-.12.29-.18.12-.07.25-.14.37-.21.09-.05.19-.11.28-.16.13-.07.26-.13.39-.2.09-.04.18-.09.26-.13.15-.07.29-.13.44-.19.07-.03.15-.06.22-.09.22-.09.44-.16.66-.23.4-.12-.67,2.12-1.76,3.65-.2.28.1.64.41.51.58-.24,1.18-.5,1.42-.64,3.36-1.92,1.99-1.5,5.96-3.31,2.91-1.32,5.41-3.37,8.41-5.17,0,0,5.63-1.55,6.84-5.47.84-2.73,2.75-8.32,3.53-11.75.1-.46.15-.72.15-.72.44-2.26,1.21-5.48,1.5-7.52.06-.43.12-.85.18-1.27.02-.15.04-.3.06-.45.04-.26.07-.52.11-.77.02-.18.04-.35.07-.53.03-.22.06-.44.08-.65.02-.19.04-.37.06-.56.02-.19.04-.39.06-.58.02-.19.04-.38.05-.57.02-.18.03-.36.04-.54.01-.19.03-.38.04-.57.01-.17.02-.34.03-.51,0-.01,0-.03,0-.04-1.73-3.06-3.71-6.23-5.91-9.3,1.68,5.33,3.09,12.96,2.42,17.35-.47,3.09-3.76,15.68-5.31,17.79-5.47,7.46-11.97,4.71-18.52,7.04-3.9,1.39-8.45,8.71-13.54,10.02-6.31,1.62-12.43-3.88-17.76-3.26-1.23.14-7.88,3.38-6.53,5.71.1.17.32.24.5.17.06-.03.13-.05.19-.08.1-.04.2-.08.29-.12Z"/>
    <path class="cls-7" d="M328.88,717.83c.21-.63-1.68-3.24-2.24-4.64-.27-.68-.55-1.36-.9-2-.45-.85-.96-1.84-1.18-2.1-1.92-2.23-3.44-4.37-6.01-5.77-.23-.12-.46-.23-.7-.34-.04-.02-.09-.04-.13-.06-.23-.1-.47-.19-.72-.28-.05-.02-.1-.04-.15-.05-.25-.09-.5-.18-.76-.26h0c-.28-.09-.57-.18-.86-.27-.27-.09-.55-.17-.82-.26-.05-.02-.1-.03-.15-.05-.27-.09-.54-.18-.81-.27,0,0,0,0,0,0-.26-.09-.51-.19-.76-.29-.05-.02-.09-.04-.14-.06-.24-.1-.48-.21-.71-.33-.02,0-.04-.02-.06-.03-.89-.46-1.87-.69-2.87-.61h-.15c-10.03-1.68-15.76-7.38-16.15-17.59-.04-.17-.28-3.19-.32-3.4-.05-3.73.01-5.83.03-7.45.01-1.28.12-2.57.32-3.83.94-6.09-1.58-2.53-1.58.14,0,3.74-.48,4.69-.51,8.44,0,.02,0,.05,0,.07-.02,2.76.06,5.53-.42,8.37-.01.07-.03.14-.04.21,0,.03,0,.05-.01.08-.32,1.88-1.06,3.95-1.41,6.12-.05.32-.09.64-.12.95-.42,4.38.98,9.28.97,13.83,0,1.59-.67,4.42-1.98,5.32-3.03,2.09-9.04,4.4-9.53,4.65-.34.18-.97.23-1.5.5-2.39,1.2-2.81,1.44-5.61,3.2-.3.19-.61.42-.9.66-.62.54-1.06,1-1.28,1.3,0,.01-.02.02-.02.03-.09.13-.15.23-.16.29-.3,1.91-.78,3.96-.99,5.83-.13,1.14-.83,6.96,1.7,6.21.96-.29.65-1.71.73-2.37,0-.05.03-.09.02-.13-.5-8.48,3.77-10.07,5.99-12.3,1.62-1.63,7.02-3.04,9.55-4.24,2.72-1.28,6.37-3.14,7.02-6.51.15-.79,4.27.04,6.41,3.06,2.8,3.95,1.8,7.23-.9,10.47-3.61,4.34-8.71,7.24-11.78,11.02-.33.41-3.12,4.4-1,3.51,1.1-.47,4.33-3.71,5.81-4.71,4.71-3.19,11.99-6.3,12.99-12.82.73-4.75-.8-7.59-4.01-10.77-.14-.14-2.06-1.8-3.63-2.91-1.04-.73-1.84-1.76-2.33-2.93-1.04-2.46-2.45-6.51-1.69-8.87.01-.03.06-.04.08-.02,3.38,3.43,7.54,5.98,11.95,8,.68.31,2.09.48,4.13.94,1.39.32,3.07.78,5.02,1.52,0,0,.01,0,.02.01,0,0,0,0,0,0l.05.06c.77,1.02,1.76,1.83,2.88,2.44,3.8,2.09,6.97,5.05,9.02,8.89.48.89,1.19,1.64,2.08,2.12.69.39,1.08.45,1.26.28Z"/>
    <path class="cls-7" d="M283.02,710.81s0,0,0,0c.67-.22,1.65-.84,2.47-1.58.27-.25.53-.51.76-.77.08-.1.16-.19.23-.29.29-.39.49-.78.55-1.13.32-1.76-.02-4.96-.46-7.18-.16-.81-.03-1.93,0-2.75,0-.27.02-.56.03-.87,0,0,0-.02,0-.03,0-.29.02-.6.02-.91,0-.03,0-.05,0-.08,0-.3.01-.61.02-.92,0-.02,0-.05,0-.07,0-.15,0-.3,0-.45,0,0,0-.01,0-.02,0-.14,0-.28,0-.41,0-.03,0-.05,0-.08,0-.14,0-.27,0-.4,0-.02,0-.03,0-.05,0-.12,0-.23,0-.34,0-.02,0-.04,0-.06,0-.12,0-.23,0-.34,0-.02,0-.04,0-.06,0-.1,0-.19,0-.27,0-.01,0-.02,0-.04,0-.09,0-.17-.02-.25,0-.02,0-.03,0-.05,0-.07-.01-.13-.02-.18,0,0,0-.01,0-.01,0-.05-.02-.1-.03-.13,0,0,0-.02,0-.02,0-.03-.02-.06-.03-.07h0c-.07-.07-1.1,2.36-1.28,2.51-.85.69-1.61,5.26-1.25,6.91,0,.04.02.08.02.11,0,1,0,2.01,0,3.01-.02,3.59-.48,4.9-3.01,7.52.37-.25,1.24.03,2.01-.23Z"/>
    <path class="cls-21" d="M347.48,694.96c.06,0,.12.02.18.04h-.04s-.1-.03-.15-.04Z"/>
    <path class="cls-21" d="M347.31,694.94s.03,0,.04,0c.04,0,.08,0,.12.01-.06,0-.11-.01-.16-.02Z"/>
    <path class="cls-21" d="M438.25,523.44l-.5-1.19s-.03-.02-.04-.04c-3.32-1.1-6.29-2.98-9.59-4.15-3.89-1.38-3.87.17-4.3-5.22-.76-9.43.4-20,.04-29.61-.67-17.79-1.67-42.41-5.69-59.46-1.22-5.18-1.17-7.36-6.47-9.57-11.75-4.91-29.96-4.58-42.73-5.88-6.42-.65-5.29-2.52-9.25-4.78-3.28-1.87-8.45-2.32-12.05-3.98-11.57-5.34-23.37-9.23-35.7-12.91-11.03-3.3-17.88-5.19-29.45-3.88l.57.71s.03.02.05.03c.33,0,.65.03.98.05.3.01.6.02.89.04.34.02.68.07,1.03.1.29.03.57.05.86.08.36.04.72.11,1.08.16.27.04.54.07.8.12.43.08.86.17,1.28.26.2.04.4.08.59.12,1.25.29,2.5.64,3.74,1.05.13.04.27.1.4.15.49.17.98.34,1.46.53.21.08.41.17.62.26.41.17.82.33,1.23.51,0,0,0,0,0,0,0,0,.01,0,.02,0h0s.04.07.04.07l.86,1.25s.03.02.04.03c.44.08.88.17,1.31.25.45.09.91.17,1.36.26.46.09.92.19,1.38.29.42.09.85.17,1.27.27.43.1.86.2,1.29.29.44.1.87.19,1.3.3.44.1.88.21,1.32.32.41.1.82.2,1.23.3.45.11.88.23,1.32.35.39.1.79.2,1.18.31.4.11.8.22,1.19.33.42.12.84.23,1.26.35.37.11.74.22,1.11.33.43.13.87.25,1.3.38.39.12.78.24,1.17.37.4.12.8.25,1.19.37.39.13.77.25,1.16.38.39.13.78.25,1.16.38.35.12.7.24,1.05.36.41.14.82.28,1.22.43.42.15.84.31,1.26.46.32.12.64.23.96.35.35.13.7.27,1.04.4.38.14.76.29,1.13.43.16.06.31.13.47.19.56.22,1.11.44,1.66.67.05.02.1.04.16.07,2.05.84,4.04,1.71,5.96,2.6,40.37,18.69,68.85,58.72,70.83,103.16.02.52.05,1.04.07,1.55.06,1.16.12,2.31.18,3.45.02.41.05.83.07,1.24.02.39.05.79.07,1.18.04.6.07,1.2.11,1.8.09,1.46.17,2.91.24,4.34,0,0,0,.01,0,.02.02.3.03.61.04.91,0,.14.01.27.02.41.07,1.46.12,2.91.16,4.34.01.48.02.96.03,1.45.02,1.29.03,2.56,0,3.83,0,.65-.02,1.29-.04,1.93-.02.64-.05,1.28-.09,1.91-.03.61-.07,1.23-.12,1.84-.02.21-.04.42-.05.63-.02.2-.03.41-.05.61-.01.14-.03.28-.04.41-.03.27-.05.55-.09.82-.02.15-.04.3-.05.44-.03.26-.06.53-.1.79-.03.23-.06.45-.1.68-.03.18-.05.36-.08.55-.04.27-.09.53-.13.8-.02.14-.04.28-.07.43-.03.17-.06.33-.09.5-.04.24-.09.48-.13.72-.02.11-.04.21-.07.32-.06.3-.12.6-.19.9-.17.76-.35,1.51-.55,2.27-.01.05-.03.1-.04.15-.08.28-.16.57-.24.85-.03.12-.07.24-.1.36-.08.28-.17.56-.26.84-.04.12-.07.24-.11.36-.11.36-.24.71-.36,1.06-.02.05-.03.09-.05.14-.13.38-.27.76-.42,1.14,0,.02-.01.04-.02.06-.12.31-.24.62-.37.93-.04.09-.07.18-.1.26-.11.27-.22.53-.34.8-.06.13-.11.27-.17.4-.08.18-.16.35-.24.53-.1.22-.2.44-.3.66-.04.09-.09.17-.13.26-.15.31-.3.62-.46.93-.07.13-.14.27-.21.4-.14.26-.27.52-.41.78-.35.64-.72,1.28-1.1,1.92-.09.15-.18.3-.27.45-.09.15-.2.31-.29.46-.15.24-.3.48-.46.72-.12.19-.25.38-.38.57-.14.2-.27.41-.41.61-.12.18-.25.35-.38.53-.15.22-.3.44-.46.65-.09.13-.19.26-.29.39-.2.26-.39.53-.59.79-.1.12-.2.25-.29.37-.21.27-.42.54-.64.81-.12.15-.25.3-.38.45-.2.24-.4.49-.61.73-.11.13-.23.26-.35.4-.23.26-.45.52-.68.78-.17.19-.35.38-.53.57-.19.2-.37.41-.56.61-.14.15-.29.31-.44.46-.23.24-.46.48-.69.72-.13.13-.26.26-.39.39-.26.26-.52.53-.8.79-.13.13-.27.26-.4.38-.28.27-.55.53-.84.8-.16.15-.33.3-.5.45-.27.24-.53.49-.8.73-.23.2-.46.4-.69.61-.22.19-.44.39-.66.58-.25.21-.51.43-.76.64-.22.18-.43.36-.65.55-.2.17-.41.33-.61.5-.29.23-.57.46-.86.69-.15.12-.32.24-.47.37-.35.27-.7.55-1.06.82-.15.11-.31.23-.46.34-.38.28-.75.57-1.14.85-.22.16-.44.32-.66.48-.33.24-.65.48-.99.71-.26.18-.52.36-.78.55-.31.22-.62.43-.94.65-.13.09-.27.18-.4.27-.46.31-.91.62-1.38.93-.19.12-.38.25-.57.37-.42.28-.84.55-1.27.83,0,0,0,0,0,0,0,0,0,0,0,0-56.24-38.54-182.63-11.58-188.68,1.37-.36.77-2.54,2.31-.06,6.03,3.23,4.85,33.88,13.41,15.95,9,1.95,1.33,45.45,9.03,49.4,11.42,2.19,1.32,4.42,2.56,6.82,3.46,6.11,2.29,17.73,6.64,17.73,6.64,2.6,2.66,4.99,5.59,7.15,8.61,2.21,3.08,4.18,6.25,5.91,9.3.15-3.38-.24-6.47-1.73-10.18-.2-.41-.38-.86-.56-1.32,0,0,0,0,0,0-.31-.69-1.24-2.06-2.27-3.49-1.27-1.76-2.94-1.29-3.63-2.06-2.22-2.49-4.26-3.36-4.44-3.36,0,0,0,0,0,0-2.37-3.04-7.38-5.88-11.06-6.97-3.94-1.16-8.12-1.88-11.85-4.24-3.99-2.53-6.39-8.47-10.87-10.18-3.69-1.41-5.63-.19-9.29-.24-4.8-.06-11.69-1.38-17.87-3.23-3.72-1.11-7.17-2.41-9.76-3.73-1.69-.87-7.81-4.17-8.95-5.09-.53-.42-.89-.77-.74-1.5,0,0,0,0,.01-.01,3.92-.28,7.13,2.47,10.52,3.75,2.46.93,5.62,1.86,8.91,2.66,4.27,1.04,8.74,1.85,12.13,2.11,5.05.39,8.29-.58,12.77-1.03,4.61-.47,3.06,1.27,4.4,2.9.71.87,3.6,1.87,4.62,2.64,1.23.93,2.6,2.57,3.76,3.51,3.16,2.54,6.99,7.13,11,7.27,0,0,.02,0,.01-.02-1.02-2.07-2.02-4.17-2.99-6.25-2.04-4.36-8.27-17.02-13.78-16.97-.93,0-37.68-15.61-3.66-7.54,6.53,1.55,12,6.02,14.79,12.12,2.7,5.91,6.34,12.32,9.03,14.24,3.85,2.75,8.05-3.21,6.91-7.3-.72-2.57-7.33-13.05-9.57-13.94,0,0,0,0,0,0-2.47.38-6.08-1.33-3.44-3.64,1.11-.98,7.28-.22,8.51.57,1.07.68,7.91,10.3,10.36,14.35.59.98.8,2.14.59,3.26-.45,2.42-1.2,4.82-2.25,7.2-.49,1.12-.86,2.28-1.23,3.45-.54,1.73.03,3.96.21,4.79.11.51,4.76,5.55,6.07,5.46,0,0,0,0,0,0,.48.17.93.37,1.36.61.83.48,1.86-.19,1.81-1.15-.1-1.95-.32-5.36-1.1-11.94-.49-7.77-1.93-15.34-4.31-22.71,0,0,0,0,0,0-5.33-2.27-2.78-6.34,2.08-6.39h0c4.91-2.15,9.01-1.41,3.3,3.45,0,0,0,0,0,0-.06.44,3.43,16.27,4.24,17.35,2.92,3.9,4.88-15.58,4.01-16.4,0,0,0,0,0,0-2.91-.71-4.76-3.77-.87-4.3,0,0,0,0,0,0l5.05.41s0,0,0,0c4.15-1.22,12.28-1.6,6.36,2.85-.48.36-1.05.56-1.64.6-2.19.14-3.57,1.07-4.13,2.78-2.01,6.5-3.89,13.81-4.46,20.57-.13,1.51-.91,2.89-2.16,3.74,0,0-.01,0-.02,0l-1.24-3.72c-.21-.64-1.13-.59-1.27.07-.71,3.35-1.08,6.2-.11,9.76.03.13,2.11,25.72,2.12,25.71.91-1.95,3.96-11.98,3.97-14.25,0-.35.01-.69.04-1.02.4-4.3,1.9-5.35,4.01-8.52,1.48-2.22,4.42-5.38,4.54-8.28.17-3.84-4.37-8.75-3.45-12.91.25-1.12,5.83-9.97,6.8-10.9.8-.76,4.96-3.16,4.64-.76-.6,4.42-8.59,8.01-7.49,15.03.33,2.08,3.96,7.23,5.35,9.17.19.26.03.97.88.63.82-.33,4.8-6.82,5.46-8.08,1.74-3.31,6.78-17.88,8.35-19.21,2.44-2.07,6.82.96,9.62.64.64-.07,5.77-1.53,6.27-1.79,1.14-.61,1.33-1.83,2.45-2.56,1.77-1.17,8.31-.97,8.71-.07,0,0,0,0,0,.01-3.22,2-10.34,5.45-13.92,6.37-2.23.57-7.92.53-8.9,1.11-.83.49-5,6.28-5.62,7.42-1.19,2.19-3.1,6.49-4.14,8.89-3.62,8.42,1.48,6.5,6.49,2.98,3.16-2.22,8.24-9.26,11.72-10.26,4.1-1.19,3.67-4.31,25.89-6.72,1.06-.11,2.12.26,2.87,1.01l.05.05c.81.81.17,2.18-.97,2.1-25.2-1.76-30.86,10.82-34.35,12.89-1.34.8-7.12,6.06-8.73,6.42-1.61.36-7.26,1.28-7.27,1.28h0c-1.15.32-2.52,1.11-3.93,2.11-5.6,3.98-9.5,9.91-11.17,16.58-.34,1.35-.6,2.42-.7,2.78-1.68,6.22-2.45,12.65-2.43,19.09.01,4.22,0,8.54-.05,8.84-.33,1.66.09,5.04.06,7.01-.19,10.55.25,17.28,8.15,24.53.26.8,1.35,1.94,4.1,3.37.41.21.71.53,1.02.74.08.06.16.11.24.16,0,0,0,0,0,0,0,0,0,0,0,0-1.14-.23-2.23-.76-3.23-1.35-.14-.08-.29-.17-.43-.25-7.32-4.44-7.22.13-12.25-17.03-.08-.27-.12-.36-.13-.33v3.12c0,2.17.26,4.34.78,6.44.51,2.09.82,3.31,1.04,3.96,0,.02.01.04.02.06.03.08.05.15.08.21,2.46,6.32,10.24,9.55,16.63,10.18h0s.1.04.14.07c.24.11.49.22.75.3-.1-.06-.21-.11-.32-.16.11.05.22.1.32.16.16.09.6.22,1.21.39,2.07.51,4.92.82,6.07,1.74,1.68,1.35,3.76,4.69,5.23,6.4.06.06.12.12.18.18.06.06.15.16.24.28.35.37.76,1.07,1.19,1.61,1.26,1.58,2.28,3.33,2.93,5.24l.11.32c.53,1.57,1.05,5.15,2.51,5.01.1-1.25.36-1.7.5-2.51l11.13,1.15,6.3,3.07c.69.34,1.38-.48.92-1.1-1.22-1.63-3.72-2.11-5.31-3.37.5-.41,1.31-.44,2-.75.28-1.51-.77-.97-1.73-1-4.27-.14-8.61.41-12.8-.5-.11-.65-4.12-9.68-4.69-10.6-5.89-9.51-14.76-9.43-21.51-14.78-4.94-5.31-3.71-8.63-3.12-7.55l3.77,4.61c.78.39,1.54.77,2.32,1.16,1.8.48,3.54,1.04,5.23,1.68,6.2,2.36,11.51,6.52,15.65,11.71,3.37,4.21,7.21,7.05,13.07,8.77.36.1.69.28.98.5.92.68,1.82,1.13,2.7,1.35.46.11.82-.4.57-.8-.51-.81-1.22-1.89-1.61-2.17-2.94-2.16-9.74-2.68-10.82-7.79-.01-.05.04-.1.09-.09,3.12.66,6.03.58,9.22,1.42,3.47.91,9.9,3.67,12.67,5.87,1.83,1.45,3.26,4.63,5.3,4.76,2.42.16,2.62-.74,1.47-2.52-2.83-4.35-6.46-5.67-10.24-8.55-.26-.2-1.21-.65-1.02-.97.01-.01.03-.02.04-.03.78-.28,1.75-.29,2.48-.5,2.75-.78,5.09-1.76,7.95-1.61.92.05,1.34-1.13.58-1.66-.63-.43-11.6,1.21-18.05-2.24-.12-.03-.22-.04-.32-.05-.02,0-.05,0-.07,0-.23-.01-.37.04-.44.13-.42.25-.64.8-.36,1.3.41.74-.06,1.27-2.54,1.13-8.19-.45-10.19-4.79-15.81-9.03-3.98-3-14.4-7.01-15.55-8.26-.47-.51-.72-2.02-.49-2.27.38-.39,2,.3,3.51.67,3.38.81,6.59,2.21,9.55,4.03.97.6,1.95,1.2,2.98,1.82,1.14.69,5.77,4.24,6.73,5.06.54.46,5.44,3.79,5.59,3.72,2.5-1.23-9.35-10.34-12.41-12.91-.51-.43-.17-1.27.5-1.22,4.24.32,7.52,3.52,9.31,5.72,1.61,1.98,3.56,3.65,5.76,4.95.62.37,1.18.68,1.56.89.35.2,10.38,6.07,15.43,3.84.38-.17.75-.41.63-.81-.11-.38-.56-.12-1.18-.29-2.22-.6-4.59-.7-6.86-1.43-.59-.19-3.25-.71-2.01-2,1.49-1.54,23.55,2.82,26.83,3.99,2.36.84,4.44,2.34,6.75,3.27.87.35,6.58,2.83,6,.52-9.71-6.27-20.29-10.74-31.88-12.23-3.72-.48-6.66.1-9.97-.02-6.72-.25-8.59-6.78-13.03-10.06-8.43-6.22-19.03-1.79-26.32-7.76-4.27-3.49-8.12-15.11-8.53-20.54-.39-5.27,1.38-17.42,4.81-23.81.68-1.26,1.42-2.31,2.22-3.02,1.69-1.51,3.16-3.37,5.67-5.11,1.8-1.24,32.09-4.07,44.69-5.27,3.84-.37,7.62-1.22,11.23-2.58,11.6-4.39,22.44-9.9,30.87-16.61,1.96-1.56,3.41-4.08,5.01-5.51,16.35-14.56,27.04-24.1,31.48-47.2.98-5.09.72-9.47,1.23-14.58,0-.01,0-.02,0-.03Z"/>
    <path class="cls-24" d="M244.57,694.14s-.05.02-.07.03c.03,0,.05-.01.07-.03Z"/>
    <path class="cls-16" d="M331.13,715.05l-.11-.32c-.65-1.91-1.68-3.66-2.93-5.24-.43-.54-.84-1.24-1.19-1.61,0,0-.01-.01-.02-.02-.13-.13-.26-.28-.4-.44-1.47-1.71-3.55-5.05-5.23-6.4-1.15-.92-4-1.23-6.07-1.74-.39-.09-.75-.19-1.06-.31-.05-.03-.09-.06-.14-.09,0,0,0,0,0,0-.26-.09-.51-.19-.75-.3-.05-.02-.1-.04-.14-.07-6.39-.63-14.17-3.86-16.63-10.18-.02-.06-.05-.13-.08-.21,0-.02-.01-.04-.02-.06-.22-.65-.53-1.87-1.04-3.96-.51-2.11-.78-4.27-.78-6.44v-2.36c0-.41-.02-.71,0-.76.02-.03.05.06.13.33,5.03,17.16,4.92,12.59,12.25,17.03.14.09.19.3.3.42,1.27,1.35,3.36,1.18,3.36,1.18-.08-.05-.16-.1-.24-.16-.31-.21-.32-.52-.69-.79-.93-.7-2.31-1.48-3.11-2.15-.17-.14-.33-.28-.47-.4-8.71-7.55-9.2-14.37-9-25.29.04-1.97-.38-5.35-.06-7.01.06-.3.06-4.63.05-8.84-.02-6.44.76-12.87,2.43-19.09.1-.37.36-1.44.7-2.78,1.66-6.66,5.57-12.6,11.17-16.58,1.41-1,2.78-1.79,3.93-2.11h0s5.66-.92,7.27-1.28c1.61-.36,7.39-5.62,8.73-6.42,3.49-2.07,9.15-14.65,34.35-12.89,1.14.08,1.78-1.29.97-2.1l-.05-.05c-.75-.75-1.81-1.12-2.87-1.01-22.22,2.41-21.79,5.53-25.89,6.72-3.47,1-8.56,8.04-11.72,10.26-5.01,3.52-10.11,5.44-6.49-2.98,1.03-2.4,2.95-6.7,4.14-8.89.62-1.14,4.79-6.93,5.62-7.42.98-.58,6.67-.54,8.9-1.11,3.58-.92,10.69-4.37,13.92-6.37,0,0,0,0,0-.01-.4-.9-6.94-1.1-8.71.07-1.11.74-1.31,1.95-2.45,2.56-.49.26-5.62,1.72-6.27,1.79-2.8.32-7.18-2.71-9.62-.64-1.57,1.33-6.61,15.9-8.35,19.21-.66,1.25-4.64,7.74-5.46,8.08-.85.34-.69-.36-.88-.63-1.39-1.94-5.02-7.09-5.35-9.17-1.1-7.01,6.89-10.6,7.49-15.03.32-2.4-3.83,0-4.64.76-.97.93-6.56,9.78-6.8,10.9-.92,4.16,3.62,9.07,3.45,12.91-.13,2.9-3.07,6.05-4.54,8.28-2.11,3.17-3.61,4.22-4.01,8.52-.03.33-.04.67-.04,1.02,0,2.27-3.06,12.29-3.97,14.25,0,.01-2.09-25.57-2.12-25.71-.97-3.55-.6-6.4.11-9.76.14-.66,1.06-.71,1.27-.07l1.24,3.72s.01,0,.02,0c1.25-.85,2.03-2.23,2.16-3.74.57-6.76,2.45-14.07,4.46-20.57.56-1.71,1.94-2.64,4.13-2.78.59-.04,1.17-.24,1.64-.6,5.91-4.45-2.21-4.07-6.36-2.85,0,0,0,0,0,0l-5.05-.41s0,0,0,0c-3.88.53-2.04,3.59.87,4.3,0,0,0,0,0,0,.87.82-1.09,20.31-4.01,16.4-.81-1.08-4.3-16.91-4.24-17.35,0,0,0,0,0,0,5.71-4.86,1.62-5.6-3.3-3.45h0c-4.87.05-7.42,4.12-2.08,6.39,0,0,0,0,0,0,2.38,7.37,3.82,14.94,4.31,22.71.78,6.58,1,9.99,1.1,11.94.05.96-.98,1.63-1.81,1.15-.42-.25-.88-.45-1.36-.61,0,0,0,0,0,0-1.32.1-5.96-4.94-6.07-5.46-.18-.83-.75-3.06-.21-4.79.37-1.16.74-2.33,1.23-3.45,1.04-2.38,1.79-4.78,2.25-7.2.21-1.12,0-2.28-.59-3.26-2.45-4.05-9.28-13.67-10.36-14.35-1.23-.79-7.39-1.54-8.51-.57-2.64,2.32.97,4.03,3.44,3.64,0,0,0,0,0,0,2.24.89,8.85,11.37,9.57,13.94,1.14,4.09-3.06,10.05-6.91,7.3-2.69-1.92-6.32-8.33-9.03-14.24-2.79-6.1-8.26-10.57-14.79-12.12-34.02-8.07,2.73,7.55,3.66,7.54,5.51-.05,11.74,12.62,13.78,16.97.98,2.08,1.98,4.18,2.99,6.25,0,0,0,.02-.01.02-4.01-.14-7.84-4.73-11-7.27-1.16-.93-2.53-2.58-3.76-3.51-1.02-.77-3.91-1.77-4.62-2.64-1.34-1.63.21-3.37-4.4-2.9-4.48.45-7.73,1.42-12.77,1.03-3.39-.26-7.86-1.07-12.13-2.11-3.29-.8-6.45-1.74-8.91-2.66-3.39-1.27-6.6-4.02-10.52-3.75,0,0,0,0-.01.01-.14.73.22,1.07.74,1.5,1.14.92,7.26,4.22,8.95,5.09,2.58,1.32,6.04,2.62,9.76,3.73,6.17,1.84,13.07,3.16,17.87,3.23,3.66.05,5.6-1.18,9.29.24,4.47,1.71,6.88,7.66,10.87,10.18,3.73,2.36,7.91,3.08,11.85,4.24,3.68,1.09,8.69,3.94,11.06,6.97,0,0,0,0,0,0,.18,0,2.22.88,4.44,3.36.69.77,2.35.3,3.63,2.06,1.04,1.43,1.96,2.81,2.27,3.49,0,0,0,0,0,0,.18.46.36.91.56,1.32,1.49,3.71,1.88,6.8,1.73,10.18,0,.01,0,.03,0,.04,0,.17-.02.34-.03.51-.01.19-.02.38-.04.57-.01.18-.03.36-.04.54-.02.19-.03.38-.05.57-.02.19-.04.39-.06.58-.02.19-.04.37-.06.56-.03.21-.05.43-.08.65-.02.18-.04.35-.07.53-.03.25-.07.51-.11.77-.02.15-.04.3-.06.45-.06.41-.12.83-.18,1.27-.3,2.04-1.06,5.25-1.5,7.52,0,0-.06.26-.15.72-.78,3.43-2.69,9.02-3.53,11.75-1.21,3.91-6.84,5.47-6.84,5.47-3.01,1.8-5.5,3.85-8.41,5.17-3.98,1.81-2.6,1.4-5.96,3.31-.23.13-.84.4-1.42.64-.31.13-.6-.23-.41-.51,1.09-1.54,2.15-3.78,1.76-3.65-.22.07-.44.15-.66.23-.07.03-.15.06-.22.09-.15.06-.29.12-.44.19-.09.04-.18.09-.26.13-.13.06-.26.13-.39.2-.09.05-.19.1-.28.16-.12.07-.25.14-.37.21-.1.06-.19.12-.29.18-.12.07-.24.15-.36.22-.1.06-.2.13-.29.19-.12.08-.23.16-.35.24-.1.07-.19.14-.29.21-.11.08-.23.16-.34.25-.1.07-.2.15-.29.22-.11.09-.22.17-.34.26-.1.08-.19.15-.29.23-.11.09-.22.18-.33.27-.09.08-.19.15-.28.23-.11.09-.22.18-.33.28-.09.08-.18.15-.28.23-.11.09-.22.19-.33.28-.09.08-.18.15-.27.23-.11.1-.23.2-.34.29-.09.08-.18.15-.26.23-.13.11-.26.23-.39.34-.14.12-.28.24-.42.36-.1.08-.19.17-.29.25-.11.09-.21.19-.32.28-.08.07-.16.14-.24.21-.01.01-.03.02-.04.04,0,0,0,0,0,0-.34.29-.73.52-1.15.68-.03.01-.06.02-.09.03-.25.1-.5.2-.76.3-.26.1-.52.21-.77.31-.06.02-.12.05-.18.07-.25.1-.5.19-.74.28-.04.02-.09.03-.13.04-.24.09-.48.17-.7.23,0,0-.01,0-.02,0,0,0-.01,0-.02,0-.17.03-.33.04-.5.06-.15.02-.3.04-.45.05-.17.01-.33,0-.5,0-.15,0-.3.01-.44,0-.17,0-.33-.02-.5-.03-.15-.01-.3-.02-.44-.03-.17-.02-.33-.05-.5-.07-.15-.02-.3-.04-.44-.06-.17-.03-.33-.07-.5-.1-.15-.03-.29-.06-.44-.09-.17-.04-.33-.08-.5-.13-.14-.04-.29-.07-.43-.11-.17-.05-.34-.1-.5-.15-.14-.04-.28-.08-.42-.12-.17-.05-.34-.11-.5-.16-.14-.05-.28-.09-.42-.14-.18-.06-.35-.12-.53-.18-.13-.04-.26-.09-.4-.13-.3-.1-.61-.21-.91-.31-.15-.05-.29-.1-.44-.15-.16-.05-.31-.11-.47-.16-.17-.05-.33-.11-.5-.16-.14-.04-.27-.09-.41-.13-.17-.05-.34-.1-.52-.15-.13-.04-.26-.08-.39-.11-.18-.05-.36-.09-.54-.13-.12-.03-.24-.06-.36-.09-.2-.04-.4-.08-.6-.11-.1-.02-.2-.04-.29-.05-.3-.05-.6-.08-.89-.1-.25-.02-.49-.03-.72-.04-.08,0-.15,0-.22,0-.15,0-.3,0-.44,0-.09,0-.16,0-.25.01-.12,0-.25.01-.36.02-.08,0-.16.02-.25.03-.11.01-.22.02-.32.04-.08.01-.16.03-.24.04-.1.02-.2.03-.29.05-.08.02-.16.04-.23.06-.09.02-.18.04-.27.07-.08.02-.15.05-.23.07-.09.03-.17.05-.26.08-.07.03-.15.05-.22.08-.08.03-.17.06-.25.09-.07.03-.15.06-.22.09-.08.03-.16.07-.24.1-.07.03-.15.07-.23.1-.08.04-.16.07-.24.11-.08.04-.16.07-.24.11-.08.04-.17.08-.25.12-.1.05-.2.1-.3.15-.11.05-.23.11-.34.17-.1.05-.19.09-.29.14-.08.04-.17.08-.26.12-.09.04-.19.09-.29.13-.09.04-.18.08-.27.12-.1.04-.2.09-.3.13-.09.04-.19.08-.29.12-.06.03-.13.05-.19.08-.1.04-.19.08-.29.12-3.39,1.34-6.18,2.12-9.26,4.52-1.14.89-6.9,6.21-5.77,7.5.47.53,7.74-6.17,9.25-6.14,3.62-1.55,7.92-2.89,10.69-4.02,1.88-.76,3.96-.89,5.93-.4,1.85.46,3.76,1.01,5.2,1.03.5,0,1,0,1.5,0,.49,0,.98,0,1.47,0,2.35-.02,4.6.85,10.33-1.69.25-.09-1.53,5.05-15.16,6.06-.55.06-1.1.11-1.65.13-3.52.37-9.22,3.16-12.36,4.93-1.06.6-7.43,4.01-6.17,5.6,6.91-3.67,15.06-7.3,23.05-7.01-1.86,3.5-9.14,4.23-13.22,5.75-.5.19-.39.93.14.96,4.31.2,10.64-1.71,14.02-4.53.29-.66.05-3.42,7.07-5.69,1.78-.57,4.44-1.99,6.01-3.01.91-.59,1.24-.91,2-1.5,2.49-1.93,4.55-5.03,7.36-6.42,2.26-1.12,4.65-1.94,6.74-2.6,4.41-1.38,4.97-2.99,8.08-4.73.35-.2,1.67,1.26,1.68,2.38.01.09,0,.2-.04.34-.09.31-.2.61-.31.9-.02.06-.05.13-.08.19-.12.28-.24.56-.38.83-.02.04-.05.08-.07.13-.13.25-.27.49-.42.72-.03.05-.06.1-.09.14-.17.26-.34.51-.52.75-.04.05-.08.11-.12.16-.18.23-.36.46-.56.69-.02.02-.03.04-.04.05-.21.24-.42.47-.64.71-.05.05-.1.1-.15.15-.22.23-.44.45-.67.67-.03.03-.06.05-.08.08-.22.21-.44.41-.66.61-.05.04-.1.09-.14.13-.24.21-.49.43-.73.63-.05.04-.1.09-.15.13-.23.19-.46.39-.7.58-.03.02-.06.05-.09.07-.27.22-.53.44-.8.65-.3.24-.6.48-.89.72-.01.01-.03.02-.04.03-.24.2-.48.39-.72.59-.06.05-.11.1-.17.14-.25.21-.5.42-.74.63-.04.04-.09.07-.13.11-.22.19-.43.38-.65.58-.04.04-.08.08-.13.11-.23.21-.46.43-.68.65-.03.03-.06.06-.09.09-.65.68.14,1.77,1,1.36,0,0,.02,0,.03-.01.06-.03.12-.06.18-.09.17-.08.34-.17.51-.25.08-.04.15-.08.23-.12.16-.08.32-.17.48-.26.07-.04.14-.08.22-.12.23-.13.46-.26.68-.41,4.11-2.65,6.49-3.57,9.8-6.44,2.69-2.33,3.24-6.71,3.72-9.61.98-5.91,1.55-10.64,2.19-16.54,0-.02,0-.04.01-.06.07-.33.66-3.05.67-3.14,2.14-12.59,2.19-3.72,1.69,6.01-.34,6.6-1.58,13.33-2,19.95,0,0,0,.01,0,.02,0,.05-.01.1-.03.16,0,0,0,0,0,0h0c-.08.28-.16.56-.24.84-.06.21-.12.42-.17.62-.09.3-.17.6-.26.9-.05.18-.11.37-.16.55-.14.46-.27.91-.42,1.37,0,.02-.01.04-.02.06-.1.32-.21.64-.31.96-.05.15-.1.3-.15.45-.09.26-.18.52-.27.78-.07.2-.14.41-.21.61-.09.25-.19.49-.28.74-.08.21-.16.42-.24.63-.07.19-.15.37-.23.55-.11.26-.21.53-.33.79-.05.12-.11.24-.17.37-.14.32-.28.63-.43.94-.07.15-.15.3-.23.45-.14.28-.27.55-.42.83-.06.11-.12.22-.19.33-.17.31-.34.62-.52.92-.1.16-.2.32-.3.48-.15.25-.3.5-.47.74-.07.11-.16.22-.23.33-.73,1.06-1.54,2.09-2.46,3.06-.01.01-.02.03-.04.04-.18.2-.38.38-.58.57-.16.16-.32.33-.49.49-.16.15-.34.29-.5.44-.22.19-.43.39-.66.58,0,0,0,0,0,0h0s-.07.06-.11.08c0,0,0,0,0,0h0c-.34.19-.72.41-1.13.63-.08.05-.16.09-.25.14-.12.06-.24.13-.36.19-.14.07-.28.15-.42.22-.1.05-.2.11-.3.16-.17.09-.33.17-.5.26-.01,0-.03.01-.04.02-.25.13-.51.26-.76.38-.06.03-.13.06-.19.09-.73.35-1.43.66-2,.88-1.75.65-3.71.81-5.41,1.36-2.09.68-6.85,2.83-8.5,3.06l-2.3.32c-.6.08-.83-.73-.31-.99-.02,0-.04,0-.06.02-5.62,2.76-12.08,8.48-17.8,9.22-1.86.24-7.49-.91-6.87,1.43.47,1.78,1.08,1.66,2.29,1.62.13,0,.24-.04.34-.09.06-.03.11-.07.16-.11.02-.01.03-.03.05-.05.15-.16.23-.39.2-.63-.05-.33.13-.66.43-.8.69-.33,1.19-.45,1.63-.47.58-.03,1.06.1,1.76.14.13,0,.28.01.43.01,0,0,.02,0,.03,0,.17,0,.34,0,.54-.02h0c.67-.05,1.3-.13,1.89-.24.79-.14,1.51-.33,2.19-.55.34-.11.66-.23.97-.36.78-.32,1.5-.68,2.19-1.08,2.47-1.42,4.51-3.22,7.62-4.52,3.72-1.57,8.95-2.34,13.19-3.52.28-.08.56-.16.83-.24l.09-.04.28-.13h0c-.09.06-.18.11-.28.14-.03.01-.06.03-.1.03.02,0,.05-.01.07-.02.28-.08.56-.15.85-.21.16-.03.31-.06.47-.09.79-.14,1.62-.27,2.46-.6.23-.09.47-.19.7-.29.07-.03.14-.07.22-.1.16-.07.32-.14.47-.22.09-.04.18-.09.27-.13.14-.07.28-.14.42-.21.1-.05.19-.1.28-.15.13-.07.26-.14.39-.21.1-.06.2-.11.3-.17.13-.07.25-.14.38-.22.1-.06.2-.12.3-.18.12-.07.25-.15.37-.22.11-.07.23-.14.34-.2.18-.11.35-.21.53-.32.14-.08.28-.17.41-.25.11-.06.21-.13.32-.19.12-.07.25-.15.37-.22.11-.06.21-.12.32-.18.12-.07.24-.14.37-.21.11-.06.21-.12.32-.18.12-.07.24-.13.37-.2.11-.06.22-.11.33-.17.12-.06.24-.13.36-.19.11-.06.22-.11.33-.16.12-.06.25-.12.37-.17.11-.05.22-.1.33-.15.12-.05.25-.11.37-.16.11-.05.23-.09.34-.13.13-.05.25-.09.38-.14.11-.04.23-.08.35-.12.07-.02.14-.05.22-.07.02,0,.05-.01.07-.02.11-.03.22-.05.33-.02.22.05.94-.19.94-.19.02.05.17.42.36.94.43,1.16,1.08,3.06,1.15,3.7,0-.97,0-1.95,0-2.92,0-.06,0-.11-.02-.16,0-.01,0-.02,0-.03-.36-1.65.4-6.22,1.25-6.91.18-.15,1.21-2.57,1.28-2.51h0s.02.04.03.07c0,0,0,.01,0,.02,0,.04.02.08.03.13,0,0,0,.01,0,.01,0,.05.01.12.02.18,0,.02,0,.03,0,.05,0,.08.01.16.02.25,0,.01,0,.02,0,.04,0,.09,0,.18,0,.27,0,.02,0,.04,0,.06,0,.11,0,.22,0,.34,0,.02,0,.04,0,.06,0,.11,0,.22,0,.34,0,.02,0,.03,0,.05,0,.13,0,.26,0,.4,0,.03,0,.05,0,.08,0,.13,0,.27,0,.41,0,0,0,.01,0,.02,0,.15,0,.3,0,.45,0,.02,0,.05,0,.07,0,.3-.01.61-.02.92,0,.03,0,.05,0,.08,0,.31-.02.62-.02.91,0,0,0,.02,0,.03,0,.31-.02.6-.03.87-.02.83-.15,1.94,0,2.75.43,2.22.78,5.42.46,7.18-.07.36-.27.75-.55,1.13-.07.1-.15.19-.23.29-.22.27-.48.53-.76.77-.82.74-1.8,1.36-2.47,1.58,0,0,0,0,0,0-.77.25-1.63-.03-2.01.23h0c-8.38,5.69-9.39,4.76-14.93,7.37-2.94,1.39-6.15,1.96-9.13,3.15-2.65,1.06-5.54,2.83-6.63,5.59-.25.64.39,1.28,1.03,1,1.83-.78,3.14-2.28,5.34-3.11,3.61-1.35,7.73-1.83,11.52-2.91.18-.05.33-.17.43-.32.01-.02.03-.04.05-.07,0-.01.02-.02.02-.03.25-.34.73-.84,1.28-1.3.29-.24.6-.47.9-.66,2.81-1.76,3.23-2,5.61-3.2.54-.27,1.16-.32,1.5-.5.49-.25,6.5-2.56,9.53-4.65,1.31-.9,1.97-3.73,1.98-5.32,0-4.55-1.4-9.45-.97-13.83.03-.31.07-.63.12-.95.34-2.15,1.08-4.35,1.42-6.2.01-.07.03-.14.04-.21.48-2.84.4-5.61.42-8.37,0,0,0-.02,0-.03,0-.02,0-.03,0-.04h0c.03-3.74.51-4.69.51-8.43,0-2.67,2.52-6.23,1.58-.14-.2,1.27-.31,2.55-.32,3.83-.01,1.62-.07,3.72-.03,7.45.04.2.28,3.23.32,3.4.39,10.21,6.12,15.91,16.15,17.6h.15c.99-.1,1.98.14,2.87.59.02.01.04.02.06.03.23.12.47.23.71.33.05.02.09.04.14.06.25.1.5.2.76.29,0,0,0,0,0,0,.27.1.54.18.81.27.05.02.1.03.15.05.27.09.55.17.82.26.29.09.57.18.86.27h0c.26.08.51.17.76.26.05.02.1.03.15.05.24.09.48.18.72.28.04.02.09.04.13.06.24.11.48.22.7.34,2.57,1.4,4.09,3.54,6.01,5.77.22.26.73,1.25,1.18,2.1.34.65.63,1.32.9,2,.56,1.4,2.45,4.02,2.24,4.64-.08.23-.44.19-1.26-.28,1.51,3.74,1.87,9,4.01,12.53.68,1.12,4.63,5.23,6.01,4.01-.86-2.13-2.36-3.28-3.15-5.62-.91-2.69-1.08-5.59-.86-8.41-1.46.14-1.97-3.45-2.51-5.01Z"/>
    <path class="cls-24" d="M241.37,696.68c.63-.53,1.16-1.09,1.56-1.68-.56.33-1.01,1.12-1.56,1.68Z"/>
    <line class="cls-13" x1="266.48" y1="705.53" x2="266.48" y2="705.53"/>
    <path class="cls-21" d="M254.79,706.76l2.3-.32c1.64-.23,6.41-2.39,8.5-3.06,1.7-.55,3.65-.71,5.41-1.36.57-.21,1.27-.53,2-.88.06-.03.13-.06.19-.09.25-.12.51-.25.76-.38.01,0,.03-.01.04-.02.17-.09.33-.17.5-.26.1-.05.2-.1.3-.16.14-.08.28-.15.42-.22.12-.06.24-.13.36-.19.09-.05.16-.09.25-.14.41-.22.79-.44,1.13-.63h0s.08-.05.12-.08c0,0,0,0,0,0,.23-.19.44-.38.66-.58.17-.15.34-.29.5-.44.17-.16.33-.33.49-.49.19-.19.39-.38.58-.57.01-.01.02-.03.04-.04.92-.97,1.73-2,2.46-3.06.08-.11.16-.22.23-.33.16-.24.31-.49.47-.74.1-.16.2-.32.3-.48.18-.3.35-.61.52-.92.06-.11.13-.22.19-.33.15-.27.28-.55.42-.83.08-.15.16-.3.23-.45.15-.31.29-.63.43-.94.05-.12.11-.24.17-.37.11-.26.22-.52.33-.79.08-.18.16-.37.23-.55.08-.21.16-.42.24-.63.09-.25.19-.49.28-.74.07-.2.14-.41.21-.61.09-.26.18-.52.27-.78.05-.15.1-.3.15-.45.1-.32.21-.64.31-.96,0-.02.01-.04.02-.06.14-.45.28-.91.42-1.37.05-.18.11-.37.16-.55.09-.3.17-.6.26-.9.06-.21.12-.41.17-.62.08-.28.16-.56.24-.84h0c0-.06.02-.11.03-.17,0,0,0,0,0,0,.42-6.62,1.66-13.35,2-19.95.5-9.74.46-18.61-1.69-6.01-.02.09-.6,2.81-.67,3.14,0,.02,0,.04-.01.06-.64,5.91-1.21,10.64-2.19,16.54-.48,2.9-1.03,7.28-3.72,9.61-3.31,2.87-5.69,3.79-9.8,6.44-.23.15-.46.28-.68.41-.07.04-.15.08-.22.12-.16.09-.32.17-.48.26-.08.04-.15.08-.23.12-.17.09-.34.17-.51.25-.06.03-.12.06-.18.09,0,0-.02,0-.03.01,0,0,0,0,0,0-.86.41-1.64-.67-1-1.36,0,0,.01-.01.02-.02.02-.02.05-.04.07-.07.22-.22.45-.43.68-.65.04-.04.08-.08.13-.11.21-.19.43-.39.65-.58.04-.04.08-.07.13-.11.24-.21.49-.42.74-.63.06-.05.11-.1.17-.14.24-.2.48-.4.72-.59.01-.01.03-.02.04-.03.3-.24.59-.48.89-.72.27-.22.53-.43.8-.65.03-.02.06-.05.09-.07.23-.19.47-.39.7-.58.05-.04.1-.09.15-.13.25-.21.49-.42.73-.63.05-.04.1-.09.14-.13.22-.2.45-.4.66-.61.03-.03.06-.05.08-.08.23-.22.46-.44.67-.67.05-.05.1-.1.15-.15.22-.23.44-.47.64-.71.02-.02.03-.04.04-.05.19-.23.38-.46.56-.69.04-.05.08-.1.12-.16.18-.25.36-.5.52-.75.03-.05.06-.09.09-.14.15-.24.29-.48.42-.72.02-.04.05-.08.07-.13.14-.27.27-.55.38-.83.03-.06.05-.13.08-.19.12-.29.22-.59.31-.9.03-.11.04-.23.04-.34,0-1.12-1.33-2.58-1.68-2.38-3.11,1.74-3.68,3.35-8.08,4.73-2.09.65-4.48,1.47-6.74,2.6-2.81,1.4-4.87,4.49-7.36,6.42-.76.59-1.09.91-2,1.5-1.58,1.02-4.24,2.43-6.01,3.01-7.02,2.27-6.79,5.02-7.07,5.69,0,0,0,0,0,0,0,0,0,0,0,0,.54-.55,1-1.35,1.56-1.68.58-.34,1.09-.61,1.57-.83.02-.01.05-.02.07-.03,3-1.36,4.44-.76,7.73-2.05,1.25-.49,3.17-1.63,4.39-2.77.6-.56,1.26-1.05,1.97-1.46,4.13-2.42,7.61-7.13,12.56-7.85.83-.12,1.34.89.72,1.46-3.11,2.93-6.88,6.11-9.23,9.01-.51.63-1.09,1.27-1.44,2.01,0,0,0,0,0,0-.53.05-3.75,5.04-5.19,5.44-1.18.33-2.04-.39-2.9-.32-3.94.29-7.98,1.8-11.62,3.32-2.35.98-14.26,6.64-13.69,9.35.56,2.66,4.27-1.92,5.15-2.35,2.54-1.25,4.37-.25,6.94-1.63,3.17-1.7,7.76-7.74,12.2-5.8,5.16,2.25,11.13-4.21,13.73-6.72.13-.13.29-.23.46-.31.23-.11.45-.22.67-.33,3.45-1.82,11.38-5.78,11.96-5.93.66-.18,2.47-1.16,2.51-1.21.13-.18,1.61,3.63-11.01,11.13-5.27,3.13-10.57,6.31-15.99,8.63-.01,0-.02.02-.03.02-.52.27-.29,1.08.31.99Z"/>
  </g>
</svg>